<svg id="Layer_1" data-name="Layer 1" xmlns="http://www.w3.org/2000/svg" viewBox="0 0 92.79 39.1"><defs><style>.cls-1{fill:#010101;}.cls-2{fill:#fff;}.cls-3{fill:#231f20;}</style></defs><title>AllstateDS_tagline</title><path class="cls-1" d="M133.21,83.06a1.42,1.42,0,0,1-1.45-1.58,1.49,1.49,0,0,1,1.45-1.58,1.42,1.42,0,0,1,1.45,1.58,1.35,1.35,0,0,1-1.45,1.58m0-2.89a1.32,1.32,0,0,0-1.31,1.31,1.18,1.18,0,0,0,1.31,1.31,1.32,1.32,0,0,0,1.31-1.31,1.18,1.18,0,0,0-1.31-1.31m0.53,2.1-0.53-.66h-0.13v0.66h-0.26V80.57h0.53a0.53,0.53,0,0,1,.66.53,0.55,0.55,0,0,1-.39.53l0.53,0.66h-0.39Zm-0.53-1.45h-0.26v0.53h0.26a0.28,0.28,0,0,0,.26-0.26c0.13-.13,0-0.26-0.26-0.26" transform="translate(-41.89 -44.85)"/><path class="cls-1" d="M54.38,65L42.82,83.56h3.94s2.89-4.6,2.89-4.73h6.57v4.73H59.9V65H54.38Zm1.84,10.51H51.75c0.26-.39,4.6-7.36,4.6-7.36v7.36H56.22Z" transform="translate(-41.89 -44.85)"/><rect class="cls-1" x="20.77" y="20.18" width="3.55" height="18.53"/><rect class="cls-1" x="26.95" y="20.18" width="3.55" height="18.53"/><path class="cls-1" d="M80.39,74.75C78.42,74.23,78,74,78,73.18S78.69,72,79.74,72a8.43,8.43,0,0,1,4.07,1.18l0.13,0.13,0.53-3H84.33a10.28,10.28,0,0,0-4.6-.92,5.36,5.36,0,0,0-3.94,1.45,4.24,4.24,0,0,0-1.05,2.76c0,2.89,1.45,3.68,4.6,4.47,2.1,0.53,2.5.79,2.5,1.84s-0.53,1.31-2,1.31a8.48,8.48,0,0,1-4.73-1.58l-0.26-.13-0.53,3.15h0.13a11.42,11.42,0,0,0,5.26,1.31A6.28,6.28,0,0,0,84.2,82.5a4.33,4.33,0,0,0,1.05-2.89c-0.13-3.28-1.58-3.94-4.86-4.86" transform="translate(-41.89 -44.85)"/><path class="cls-1" d="M93.93,80.4H93.79a2.26,2.26,0,0,1-1.05.13A1.39,1.39,0,0,1,91.17,79V72.39h2.63v-3H91.17V65H87.62V69.5H85.78v3h1.84v7.09c0,2.76,1.45,4.2,4.47,4.2a8.23,8.23,0,0,0,2.1-.26h0.13Z" transform="translate(-41.89 -44.85)"/><path class="cls-1" d="M101.68,69.23a13.72,13.72,0,0,0-5.26,1.05H96.29l0.53,3,0.26-.13a11.56,11.56,0,0,1,4.34-1.05c1.45,0,2.1.53,2.1,1.84v0.39c-5.39.53-7.88,2.36-7.88,5.52a3.72,3.72,0,0,0,3.94,3.94,5.89,5.89,0,0,0,4.2-1.84,12.67,12.67,0,0,1,.26,1.58h3.15V73.83c-0.26-3.15-2-4.6-5.52-4.6m-1.31,11.69a1.31,1.31,0,0,1-1.45-1.45c0-1.58,1.45-2.63,4.34-2.89v3a3.73,3.73,0,0,1-2.89,1.31" transform="translate(-41.89 -44.85)"/><path class="cls-1" d="M116.13,80.3H116a2.26,2.26,0,0,1-1.05.13,1.39,1.39,0,0,1-1.58-1.58V72.29H116v-3h-2.76V64.93h-3.55V69.4h-1.84v3h1.84v7.09c0,2.76,1.45,4.2,4.47,4.2a8.23,8.23,0,0,0,2.1-.26h0.13Z" transform="translate(-41.89 -44.85)"/><path class="cls-1" d="M128.48,79.25A6.89,6.89,0,0,1,124,80.83c-2,0-3.15-1.31-3.28-3.55h8.41V76.36c0-4.73-2-7.23-5.91-7.23a5.75,5.75,0,0,0-4.2,1.58,7.9,7.9,0,0,0-2,5.78c0,4.47,2.5,7.23,6.57,7.23A9.59,9.59,0,0,0,129,82.14h0.13l-0.39-2.89h-0.26Zm-7.62-4.34c0.13-2,1.05-3.15,2.36-3.15,1.84,0,2.36,1.71,2.5,3.15h-4.86Z" transform="translate(-41.89 -44.85)"/><path class="cls-2" d="M132.28,82.32a1.42,1.42,0,0,1-1.45-1.58,1.49,1.49,0,0,1,1.45-1.58,1.42,1.42,0,0,1,1.45,1.58,1.35,1.35,0,0,1-1.45,1.58m0-2.89A1.32,1.32,0,0,0,131,80.75a1.18,1.18,0,0,0,1.31,1.31,1.32,1.32,0,0,0,1.31-1.31,1.18,1.18,0,0,0-1.31-1.31m0.53,2.1-0.53-.66h-0.13v0.66h-0.26V79.83h0.53a0.53,0.53,0,0,1,.66.53,0.55,0.55,0,0,1-.39.53l0.53,0.66h-0.39Zm-0.53-1.45H132v0.53h0.26a0.28,0.28,0,0,0,.26-0.26c0.13-.13,0-0.26-0.26-0.26" transform="translate(-41.89 -44.85)"/><path class="cls-2" d="M53.45,64.29L41.89,82.82h3.94s2.89-4.6,2.89-4.73h6.57v4.73H59V64.29H53.45ZM55.29,74.8H50.82c0.26-.39,4.6-7.36,4.6-7.36V74.8H55.29Z" transform="translate(-41.89 -44.85)"/><rect class="cls-2" x="19.84" y="19.44" width="3.55" height="18.53"/><rect class="cls-2" x="26.01" y="19.44" width="3.55" height="18.53"/><path class="cls-2" d="M79.46,74c-2-.53-2.36-0.79-2.36-1.58s0.66-1.18,1.71-1.18a8.43,8.43,0,0,1,4.07,1.18L83,72.57l0.53-3H83.4a10.28,10.28,0,0,0-4.6-.92,5.36,5.36,0,0,0-3.94,1.45,4.24,4.24,0,0,0-1.05,2.76c0,2.89,1.45,3.68,4.6,4.47,2.1,0.53,2.5.79,2.5,1.84s-0.53,1.31-2,1.31a8.48,8.48,0,0,1-4.73-1.58l-0.26-.13L73.42,81.9h0.13a11.42,11.42,0,0,0,5.26,1.31,6.28,6.28,0,0,0,4.47-1.45,4.33,4.33,0,0,0,1.05-2.89c-0.13-3.28-1.58-3.94-4.86-4.86" transform="translate(-41.89 -44.85)"/><path class="cls-2" d="M93,79.66H92.86a2.26,2.26,0,0,1-1.05.13,1.39,1.39,0,0,1-1.58-1.58V71.65h2.63v-3H90.24V64.29H86.69v4.47H84.85v3h1.84v7.09c0,2.76,1.45,4.2,4.47,4.2a8.23,8.23,0,0,0,2.1-.26h0.13Z" transform="translate(-41.89 -44.85)"/><path class="cls-2" d="M100.75,68.5a13.72,13.72,0,0,0-5.26,1.05H95.36l0.53,3,0.26-.13a11.56,11.56,0,0,1,4.34-1.05c1.45,0,2.1.53,2.1,1.84v0.39c-5.39.53-7.88,2.36-7.88,5.52a3.72,3.72,0,0,0,3.94,3.94,5.89,5.89,0,0,0,4.2-1.84,12.67,12.67,0,0,1,.26,1.58h3.15V73.09c-0.26-3.15-2-4.6-5.52-4.6M99.43,80.19A1.31,1.31,0,0,1,98,78.74c0-1.58,1.45-2.63,4.34-2.89v3a3.73,3.73,0,0,1-2.89,1.31" transform="translate(-41.89 -44.85)"/><path class="cls-2" d="M115.2,79.56h-0.13a2.26,2.26,0,0,1-1.05.13,1.39,1.39,0,0,1-1.58-1.58V71.55h2.63v-3h-2.76V64.19h-3.55v4.47h-1.84v3h1.84v7.09c0,2.76,1.45,4.2,4.47,4.2a8.23,8.23,0,0,0,2.1-.26h0.13Z" transform="translate(-41.89 -44.85)"/><path class="cls-2" d="M127.55,78.51a6.89,6.89,0,0,1-4.47,1.58c-2,0-3.15-1.31-3.28-3.55h8.41V75.62c0-4.73-2-7.23-5.91-7.23a5.75,5.75,0,0,0-4.2,1.58,7.9,7.9,0,0,0-2,5.78c0,4.47,2.5,7.23,6.57,7.23a9.59,9.59,0,0,0,5.39-1.58h0.13l-0.39-2.89h-0.26Zm-7.62-4.34c0.13-2,1.05-3.15,2.36-3.15,1.84,0,2.36,1.71,2.5,3.15h-4.86Z" transform="translate(-41.89 -44.85)"/><path class="cls-3" d="M48.3,59.62a5,5,0,0,1-5.4-5.28A5.05,5.05,0,0,1,48.3,49a5.07,5.07,0,0,1,5.42,5.36A5,5,0,0,1,48.3,59.62Zm0-8.24c-1.54,0-2.38,1.21-2.38,2.94s0.85,2.9,2.38,2.9,2.38-1.19,2.38-2.9S49.85,51.38,48.3,51.38Z" transform="translate(-41.89 -44.85)"/><path class="cls-3" d="M55.58,59.39V49.21h2.84v1.21A4.07,4.07,0,0,1,61.51,49C63.84,49,65,50.59,65,52.67v6.72H62.13V53.32a1.54,1.54,0,0,0-1.65-1.81,2,2,0,0,0-2.05,2.11v5.76H55.58Z" transform="translate(-41.89 -44.85)"/><path class="cls-3" d="M67.42,59.39V45.68h2.84V59.39H67.42Z" transform="translate(-41.89 -44.85)"/><path class="cls-3" d="M78.4,59.71c-0.81,2.11-1.81,3.21-3.86,3.21a4.57,4.57,0,0,1-2.44-.63l0.83-2.13a1.91,1.91,0,0,0,1.21.44,1.45,1.45,0,0,0,1.34-1l0.23-.48-4.19-9.89h3.26l2.4,6.45,2.17-6.45h3.05Z" transform="translate(-41.89 -44.85)"/><path class="cls-3" d="M94.62,47.83a3.79,3.79,0,0,0-1.11-.19,0.85,0.85,0,0,0-1,.94v0.63h2.05V51.4H92.51v8H89.66v-8H88.07V49.21h1.59V48.52c0-1.79,1.21-3.07,3.53-3.07a5.76,5.76,0,0,1,1.71.23Z" transform="translate(-41.89 -44.85)"/><path class="cls-3" d="M102.27,52.15a2.27,2.27,0,0,0-1.07-.27c-1.29,0-2.19,1.06-2.19,2.65v4.86H96.16V49.21H99v1.57A3.22,3.22,0,0,1,101.73,49a3,3,0,0,1,1.21.25Z" transform="translate(-41.89 -44.85)"/><path class="cls-3" d="M108.84,59.62a5,5,0,0,1-5.4-5.28,5.41,5.41,0,0,1,10.81,0A5,5,0,0,1,108.84,59.62Zm0-8.24c-1.54,0-2.38,1.21-2.38,2.94s0.85,2.9,2.38,2.9,2.38-1.19,2.38-2.9S110.39,51.38,108.84,51.38Z" transform="translate(-41.89 -44.85)"/><path class="cls-3" d="M116.14,49.21H119V50.4A3.85,3.85,0,0,1,122,49a2.83,2.83,0,0,1,2.86,1.75A4.18,4.18,0,0,1,128.26,49c2.3,0,3.4,1.59,3.4,3.67v6.74H128.8V53.3a1.49,1.49,0,0,0-1.57-1.79,1.87,1.87,0,0,0-1.9,2.09v5.78h-2.84V53.3a1.5,1.5,0,0,0-1.59-1.79,1.86,1.86,0,0,0-1.9,2.09v5.78h-2.84V49.21Z" transform="translate(-41.89 -44.85)"/><path class="cls-2" d="M47.36,59A5,5,0,0,1,42,53.74a5.05,5.05,0,0,1,5.4-5.36,5.07,5.07,0,0,1,5.42,5.36A5,5,0,0,1,47.36,59Zm0-8.24C45.82,50.78,45,52,45,53.72s0.85,2.9,2.38,2.9,2.38-1.19,2.38-2.9S48.91,50.78,47.36,50.78Z" transform="translate(-41.89 -44.85)"/><path class="cls-2" d="M54.64,58.79V48.62h2.84v1.21a4.07,4.07,0,0,1,3.09-1.44c2.32,0,3.48,1.61,3.48,3.69v6.72H61.19V52.72a1.54,1.54,0,0,0-1.65-1.81A2,2,0,0,0,57.48,53v5.76H54.64Z" transform="translate(-41.89 -44.85)"/><path class="cls-2" d="M66.48,58.79V45.08h2.84V58.79H66.48Z" transform="translate(-41.89 -44.85)"/><path class="cls-2" d="M77.47,59.12c-0.81,2.11-1.81,3.21-3.86,3.21a4.57,4.57,0,0,1-2.44-.63L72,59.56A1.91,1.91,0,0,0,73.2,60a1.45,1.45,0,0,0,1.34-1l0.23-.48-4.19-9.89h3.26l2.4,6.45,2.17-6.45h3.05Z" transform="translate(-41.89 -44.85)"/><path class="cls-2" d="M93.68,47.23A3.79,3.79,0,0,0,92.57,47a0.85,0.85,0,0,0-1,.94v0.63h2.05V50.8H91.57v8H88.73v-8H87.13V48.62h1.59V47.92c0-1.79,1.21-3.07,3.53-3.07a5.76,5.76,0,0,1,1.71.23Z" transform="translate(-41.89 -44.85)"/><path class="cls-2" d="M101.33,51.55a2.27,2.27,0,0,0-1.07-.27c-1.29,0-2.19,1.06-2.19,2.65v4.86H95.22V48.62h2.84v1.57a3.22,3.22,0,0,1,2.73-1.77,3,3,0,0,1,1.21.25Z" transform="translate(-41.89 -44.85)"/><path class="cls-2" d="M107.9,59a5,5,0,0,1-5.4-5.28,5.41,5.41,0,0,1,10.81,0A5,5,0,0,1,107.9,59Zm0-8.24c-1.54,0-2.38,1.21-2.38,2.94s0.85,2.9,2.38,2.9,2.38-1.19,2.38-2.9S109.46,50.78,107.9,50.78Z" transform="translate(-41.89 -44.85)"/><path class="cls-2" d="M115.2,48.62H118v1.19a3.85,3.85,0,0,1,3-1.42,2.83,2.83,0,0,1,2.86,1.75,4.18,4.18,0,0,1,3.44-1.75c2.3,0,3.4,1.59,3.4,3.67v6.74h-2.86V52.71a1.49,1.49,0,0,0-1.57-1.79,1.87,1.87,0,0,0-1.9,2.09v5.78h-2.84V52.71a1.5,1.5,0,0,0-1.59-1.79A1.86,1.86,0,0,0,118,53v5.78H115.2V48.62Z" transform="translate(-41.89 -44.85)"/></svg>