<svg id="Layer_1" data-name="Layer 1" xmlns="http://www.w3.org/2000/svg" viewBox="0 0 212.48 18.24"><defs><style>.cls-1{fill:#010101;}.cls-2{fill:#fff;}</style></defs><title>AllstateH_tagline</title><path class="cls-1" d="M286.07,115.84a1.08,1.08,0,0,1-1.1-1.2,1.13,1.13,0,0,1,1.06-1.2h0a1.08,1.08,0,0,1,1.1,1.2,1,1,0,0,1-1.1,1.2m0-2.2a1,1,0,0,0-1,1,0.9,0.9,0,0,0,.79,1h0.21a1,1,0,0,0,1-1,0.9,0.9,0,0,0-.79-1h-0.21m0.4,1.6-0.4-.5H286v0.5h-0.2v-1.3h0.4a0.4,0.4,0,0,1,.5.4,0.42,0.42,0,0,1-.3.4l0.4,0.5h-0.3Zm-0.4-1.11h-0.2v0.4h0.2a0.22,0.22,0,0,0,.2-0.2c0.1-.1,0-0.2-0.2-0.2" transform="translate(-137.6 -101.48)"/><path class="cls-1" d="M226.07,102.13l-8.8,14.1h3s2.2-3.5,2.2-3.6h5v3.6h2.8v-14.1h-4.2Zm1.4,8h-3.4c0.2-.3,3.5-5.6,3.5-5.6v5.6h-0.1Z" transform="translate(-137.6 -101.48)"/><rect class="cls-1" x="94.79" y="0.64" width="2.7" height="14.1"/><rect class="cls-1" x="99.49" y="0.64" width="2.7" height="14.1"/><path class="cls-1" d="M245.89,109.52c-1.5-.4-1.8-0.6-1.8-1.2s0.5-.9,1.3-0.9a6.41,6.41,0,0,1,3.1.9l0.1,0.1,0.4-2.3h-0.1a7.82,7.82,0,0,0-3.5-.7,4.08,4.08,0,0,0-3,1.1,3.23,3.23,0,0,0-.8,2.1c0,2.2,1.1,2.8,3.5,3.4,1.6,0.4,1.9.6,1.9,1.4s-0.4,1-1.5,1a6.45,6.45,0,0,1-3.6-1.2l-0.2-.1-0.4,2.4h0.1a8.69,8.69,0,0,0,4,1,4.78,4.78,0,0,0,3.4-1.1,3.29,3.29,0,0,0,.8-2.2c-0.1-2.5-1.2-3-3.7-3.7" transform="translate(-137.6 -101.48)"/><path class="cls-1" d="M256.19,113.82h-0.12a1.72,1.72,0,0,1-.8.1,1.06,1.06,0,0,1-1.2-1.2v-5h2v-2.3h-2v-3.29h-2.7v3.4H250v2.3h1.4v5.4c0,2.1,1.1,3.2,3.4,3.2a6.27,6.27,0,0,0,1.6-.2h0.1Z" transform="translate(-137.6 -101.48)"/><path class="cls-1" d="M262.07,105.32a10.45,10.45,0,0,0-4,.8H258l0.4,2.3,0.2-.1a8.8,8.8,0,0,1,3.3-.8c1.1,0,1.6.4,1.6,1.4v0.3c-4.1.4-6,1.8-6,4.2a2.83,2.83,0,0,0,2.65,3h0.35a4.48,4.48,0,0,0,3.2-1.4,9.64,9.64,0,0,1,.2,1.2h2.4v-7.4c-0.2-2.4-1.5-3.5-4.2-3.5m-1,8.9a1,1,0,0,1-1.1-1.1c0-1.2,1.1-2,3.3-2.2v2.3a2.84,2.84,0,0,1-2.2,1" transform="translate(-137.6 -101.48)"/><path class="cls-1" d="M273.07,113.74H273a1.72,1.72,0,0,1-.8.1,1.06,1.06,0,0,1-1.2-1.2v-5h2v-2.3h-2.1V102h-2.7v3.4h-1.4v2.3h1.4v5.39c0,2.1,1.1,3.2,3.4,3.2a6.27,6.27,0,0,0,1.6-.2h0.1Z" transform="translate(-137.6 -101.48)"/><path class="cls-1" d="M282.49,112.94a5.25,5.25,0,0,1-3.42,1.19c-1.5,0-2.4-1-2.5-2.7H283v-0.7c0-3.6-1.5-5.5-4.5-5.5a4.38,4.38,0,0,0-3.2,1.2,6,6,0,0,0-1.5,4.4c0,3.4,1.9,5.5,5,5.5a7.3,7.3,0,0,0,4.1-1.2H283l-0.3-2.2h-0.18Zm-5.8-3.3c0.1-1.5.8-2.4,1.8-2.4,1.4,0,1.8,1.3,1.9,2.4h-3.7Z" transform="translate(-137.6 -101.48)"/><path class="cls-2" d="M285.38,115.28a1.08,1.08,0,0,1-1.1-1.2,1.13,1.13,0,0,1,1.06-1.2h0a1.08,1.08,0,0,1,1.1,1.2,1,1,0,0,1-1.1,1.2m0-2.2a1,1,0,0,0-1,1,0.9,0.9,0,0,0,.79,1h0.21a1,1,0,0,0,1-1,0.9,0.9,0,0,0-.79-1h-0.21m0.4,1.6-0.4-.5h-0.1v0.5h-0.21v-1.3h0.4a0.4,0.4,0,0,1,.5.4,0.42,0.42,0,0,1-.3.4l0.4,0.5h-0.29Zm-0.4-1.1h-0.2V114h0.2a0.22,0.22,0,0,0,.2-0.2c0.1-.1,0-0.2-0.2-0.2" transform="translate(-137.6 -101.48)"/><path class="cls-2" d="M225.38,101.56l-8.8,14.1h3s2.2-3.5,2.2-3.6h5v3.6h2.8v-14.1h-4.2Zm1.4,8h-3.4c0.2-.3,3.5-5.6,3.5-5.6v5.6h-0.1Z" transform="translate(-137.6 -101.48)"/><rect class="cls-2" x="94.08" y="0.08" width="2.7" height="14.1"/><rect class="cls-2" x="98.78" y="0.08" width="2.7" height="14.1"/><path class="cls-2" d="M245.18,109c-1.5-.4-1.8-0.6-1.8-1.2s0.5-.9,1.3-0.9a6.41,6.41,0,0,1,3.1.9l0.1,0.1,0.4-2.3h-0.1a7.82,7.82,0,0,0-3.5-.7,4.08,4.08,0,0,0-3,1.1,3.23,3.23,0,0,0-.8,2.1c0,2.2,1.1,2.8,3.5,3.4,1.6,0.4,1.9.6,1.9,1.4s-0.4,1-1.5,1a6.45,6.45,0,0,1-3.6-1.2l-0.2-.1-0.4,2.4h0.1a8.69,8.69,0,0,0,4,1,4.78,4.78,0,0,0,3.4-1.1,3.29,3.29,0,0,0,.8-2.2c-0.1-2.5-1.2-3-3.7-3.7" transform="translate(-137.6 -101.48)"/><path class="cls-2" d="M255.48,113.26h-0.1a1.72,1.72,0,0,1-.8.1,1.06,1.06,0,0,1-1.2-1.2v-5h2v-2.27h-2v-3.3h-2.7V105h-1.4v2.3h1.4v5.4c0,2.1,1.1,3.2,3.4,3.2a6.27,6.27,0,0,0,1.6-.2h0.1Z" transform="translate(-137.6 -101.48)"/><path class="cls-2" d="M261.38,104.76a10.45,10.45,0,0,0-4,.8h-0.1l0.4,2.3,0.2-.1a8.8,8.8,0,0,1,3.3-.8c1.1,0,1.6.4,1.6,1.4v0.3c-4.1.4-6,1.8-6,4.2a2.83,2.83,0,0,0,2.65,3h0.35a4.48,4.48,0,0,0,3.2-1.4,9.64,9.64,0,0,1,.2,1.2h2.4v-7.4c-0.2-2.4-1.5-3.5-4.2-3.5m-1,8.9a1,1,0,0,1-1.1-1.1c0-1.2,1.1-2,3.3-2.2v2.3a2.84,2.84,0,0,1-2.2,1" transform="translate(-137.6 -101.48)"/><path class="cls-2" d="M272.38,113.18h-0.1a1.72,1.72,0,0,1-.8.1,1.06,1.06,0,0,1-1.2-1.2v-5h2v-2.35h-2.1v-3.3h-2.7v3.4h-1.41v2.3h1.4v5.4c0,2.1,1.1,3.2,3.4,3.2a6.27,6.27,0,0,0,1.6-.2h0.1Z" transform="translate(-137.6 -101.48)"/><path class="cls-2" d="M281.78,112.38a5.25,5.25,0,0,1-3.4,1.2c-1.5,0-2.4-1-2.5-2.7h6.4v-0.7c0-3.6-1.5-5.5-4.5-5.5a4.38,4.38,0,0,0-3.2,1.2,6,6,0,0,0-1.5,4.4c0,3.4,1.9,5.5,5,5.5a7.3,7.3,0,0,0,4.1-1.2h0.1l-0.3-2.2h-0.2Zm-5.8-3.3c0.1-1.5.8-2.4,1.8-2.4,1.4,0,1.8,1.3,1.9,2.4H276Z" transform="translate(-137.6 -101.48)"/><path d="M145,104.74a3.75,3.75,0,0,0-1.1-.19,0.85,0.85,0,0,0-1,.93v0.63h2v2.17h-2v7.93H140.1v-7.93h-1.58v-2.17h1.58v-0.69c0-1.77,1.2-3,3.51-3a5.7,5.7,0,0,1,1.7.23Z" transform="translate(-137.6 -101.48)"/><path d="M152.6,109a2.26,2.26,0,0,0-1.07-.27c-1.28,0-2.17,1-2.17,2.63v4.82h-2.82v-10.1h2.82v1.56a3.2,3.2,0,0,1,2.71-1.75,3,3,0,0,1,1.2.25Z" transform="translate(-137.6 -101.48)"/><path d="M159.13,116.44a5.28,5.28,0,1,1,0-10.56A5.28,5.28,0,1,1,159.13,116.44Zm0-8.18c-1.52,0-2.36,1.2-2.36,2.92s0.84,2.88,2.36,2.88,2.36-1.18,2.36-2.88S160.67,108.26,159.13,108.26Z" transform="translate(-137.6 -101.48)"/><path d="M166.37,106.11h2.82v1.18a3.82,3.82,0,0,1,3-1.41,2.81,2.81,0,0,1,2.84,1.73,4.15,4.15,0,0,1,3.41-1.73c2.29,0,3.37,1.58,3.37,3.64v6.69h-2.84v-6a1.48,1.48,0,0,0-1.56-1.77,1.86,1.86,0,0,0-1.89,2.08v5.74h-2.82v-6a1.48,1.48,0,0,0-1.58-1.77,1.85,1.85,0,0,0-1.89,2.08v5.74h-2.82v-10.1Z" transform="translate(-137.6 -101.48)"/><path d="M188.68,113.25c0-2.5,2.25-2.84,3.68-3,1.28-.15,2.55-0.19,2.55-1.11,0-.69-0.72-1-1.68-1a5.74,5.74,0,0,0-3.13,1l-1-2.06a8.12,8.12,0,0,1,4.35-1.2c2.61,0,4.33,1.11,4.33,3.53v4.27c0,0.51.19,0.71,0.53,0.71a0.79,0.79,0,0,0,.48-0.15L199,116a3.3,3.3,0,0,1-1.54.36,2.11,2.11,0,0,1-2.08-1.31,3.9,3.9,0,0,1-3.18,1.37C190.2,116.46,188.68,115.31,188.68,113.25Zm6.23-2a3.33,3.33,0,0,1-1.85.59c-0.82.13-1.58,0.34-1.58,1.3a1.24,1.24,0,0,0,1.47,1.22,1.79,1.79,0,0,0,2-1.92v-1.18Z" transform="translate(-137.6 -101.48)"/><path d="M200.42,116.21v-10.1h2.82v1.2a4,4,0,0,1,3.07-1.43c2.31,0,3.45,1.6,3.45,3.66v6.67h-2.84v-6a1.53,1.53,0,0,0-1.64-1.79,2,2,0,0,0-2,2.1v5.72h-2.82Z" transform="translate(-137.6 -101.48)"/><path d="M303.2,116.21l-1-3.11h-5.05l-1,3.11H293l5-13.61h3.37l5,13.61h-3.2Zm-3.54-10.77-1.77,5.26h3.51Z" transform="translate(-137.6 -101.48)"/><path d="M317.48,114.23a5.55,5.55,0,0,1-1.12,3.87,6.1,6.1,0,0,1-4.59,1.62,8,8,0,0,1-4.35-1.12l1-2.17a5.8,5.8,0,0,0,3.24.93c1.68,0,3-.67,3-2.44v-0.65a4,4,0,0,1-3.18,1.43,4.92,4.92,0,0,1,0-9.81,4,4,0,0,1,3.16,1.41v-1.18h2.84v8.12Zm-5.28-6a2.29,2.29,0,0,0-2.34,2.55,2.34,2.34,0,0,0,2.34,2.59,2.41,2.41,0,0,0,2.44-2.61A2.34,2.34,0,0,0,312.2,108.22Z" transform="translate(-137.6 -101.48)"/><path d="M324.56,105.88a4.71,4.71,0,0,1,5,5.07c0,0.32,0,.63-0.06.88h-7.17a2.29,2.29,0,0,0,2.57,2.21,3.45,3.45,0,0,0,2.78-1.2l1.75,1.64a6,6,0,0,1-4.71,2c-3.62,0-5.45-2.21-5.45-5.22A5,5,0,0,1,324.56,105.88Zm2.23,4.14a2,2,0,0,0-2.21-2,2.06,2.06,0,0,0-2.21,2h4.42Z" transform="translate(-137.6 -101.48)"/><path d="M331.41,116.21v-10.1h2.82v1.2a4,4,0,0,1,3.07-1.43c2.31,0,3.45,1.6,3.45,3.66v6.67H337.9v-6a1.53,1.53,0,0,0-1.64-1.79,2,2,0,0,0-2,2.1v5.72h-2.82Z" transform="translate(-137.6 -101.48)"/><path d="M350.09,115.68a4.59,4.59,0,0,1-2.69.76,3.21,3.21,0,0,1-2.84-1.26,3.84,3.84,0,0,1-.61-2.31v-4.59h-1.7v-2c1.54-.13,2.25-0.82,2.34-2.69h2.19v2.55h2.88v2.17h-2.88v4.48a1,1,0,0,0,1.12,1.22,2.4,2.4,0,0,0,1.41-.46Z" transform="translate(-137.6 -101.48)"/><path class="cls-2" d="M144.1,104.14A3.75,3.75,0,0,0,143,104a0.85,0.85,0,0,0-1,.93v0.63h2v2.17h-2v7.93h-2.82v-7.93H137.6v-2.17h1.58v-0.69c0-1.77,1.2-3,3.51-3a5.7,5.7,0,0,1,1.7.23Z" transform="translate(-137.6 -101.48)"/><path class="cls-2" d="M151.69,108.43a2.26,2.26,0,0,0-1.07-.27c-1.28,0-2.17,1-2.17,2.63v4.82h-2.82v-10.1h2.82v1.56a3.2,3.2,0,0,1,2.71-1.75,3,3,0,0,1,1.2.25Z" transform="translate(-137.6 -101.48)"/><path class="cls-2" d="M158.21,115.84a5.28,5.28,0,1,1,0-10.56A5.28,5.28,0,1,1,158.21,115.84Zm0-8.18c-1.52,0-2.36,1.2-2.36,2.92s0.84,2.88,2.36,2.88,2.36-1.18,2.36-2.88S159.76,107.67,158.21,107.67Z" transform="translate(-137.6 -101.48)"/><path class="cls-2" d="M165.46,105.51h2.82v1.18a3.82,3.82,0,0,1,3-1.41,2.81,2.81,0,0,1,2.84,1.73,4.15,4.15,0,0,1,3.41-1.73c2.29,0,3.37,1.58,3.37,3.64v6.69H178v-6a1.48,1.48,0,0,0-1.56-1.77,1.86,1.86,0,0,0-1.89,2.08v5.74h-2.82v-6a1.48,1.48,0,0,0-1.58-1.77,1.85,1.85,0,0,0-1.89,2.08v5.74h-2.82v-10.1Z" transform="translate(-137.6 -101.48)"/><path class="cls-2" d="M187.77,112.66c0-2.5,2.25-2.84,3.68-3,1.28-.15,2.55-0.19,2.55-1.11,0-.69-0.72-1-1.68-1a5.74,5.74,0,0,0-3.13,1l-1-2.06a8.12,8.12,0,0,1,4.35-1.2c2.61,0,4.33,1.11,4.33,3.53v4.27c0,0.51.19,0.71,0.53,0.71a0.79,0.79,0,0,0,.48-0.15l0.29,1.81a3.3,3.3,0,0,1-1.54.36,2.11,2.11,0,0,1-2.08-1.31,3.9,3.9,0,0,1-3.18,1.37C189.29,115.86,187.77,114.72,187.77,112.66Zm6.23-2a3.33,3.33,0,0,1-1.85.59c-0.82.13-1.58,0.34-1.58,1.3a1.24,1.24,0,0,0,1.47,1.22,1.79,1.79,0,0,0,2-1.92v-1.18Z" transform="translate(-137.6 -101.48)"/><path class="cls-2" d="M199.51,115.61v-10.1h2.82v1.2a4,4,0,0,1,3.07-1.43c2.31,0,3.45,1.6,3.45,3.66v6.67H206v-6a1.53,1.53,0,0,0-1.64-1.79,2,2,0,0,0-2,2.1v5.72h-2.82Z" transform="translate(-137.6 -101.48)"/><path class="cls-2" d="M302.29,115.61l-1-3.11h-5.05l-1,3.11h-3.07l5-13.61h3.37l5,13.61h-3.2Zm-3.54-10.77L297,110.11h3.51Z" transform="translate(-137.6 -101.48)"/><path class="cls-2" d="M316.57,113.63a5.55,5.55,0,0,1-1.12,3.87,6.1,6.1,0,0,1-4.59,1.62,8,8,0,0,1-4.35-1.12l1-2.17a5.8,5.8,0,0,0,3.24.93c1.68,0,3-.67,3-2.44v-0.65a4,4,0,0,1-3.18,1.43,4.92,4.92,0,0,1,0-9.81,4,4,0,0,1,3.16,1.41v-1.18h2.84v8.12Zm-5.28-6a2.29,2.29,0,0,0-2.34,2.55,2.34,2.34,0,0,0,2.34,2.59,2.41,2.41,0,0,0,2.44-2.61A2.34,2.34,0,0,0,311.29,107.63Z" transform="translate(-137.6 -101.48)"/><path class="cls-2" d="M323.65,105.28a4.71,4.71,0,0,1,5,5.07c0,0.32,0,.63-0.06.88h-7.17a2.29,2.29,0,0,0,2.57,2.21,3.45,3.45,0,0,0,2.78-1.2l1.75,1.64a6,6,0,0,1-4.71,2c-3.62,0-5.45-2.21-5.45-5.22A5,5,0,0,1,323.65,105.28Zm2.23,4.14a2,2,0,0,0-2.21-2,2.06,2.06,0,0,0-2.21,2h4.42Z" transform="translate(-137.6 -101.48)"/><path class="cls-2" d="M330.49,115.61v-10.1h2.82v1.2a4,4,0,0,1,3.07-1.43c2.31,0,3.45,1.6,3.45,3.66v6.67H337v-6a1.53,1.53,0,0,0-1.64-1.79,2,2,0,0,0-2,2.1v5.72h-2.82Z" transform="translate(-137.6 -101.48)"/><path class="cls-2" d="M349.17,115.08a4.59,4.59,0,0,1-2.69.76,3.21,3.21,0,0,1-2.84-1.26,3.84,3.84,0,0,1-.61-2.31v-4.59h-1.7v-2c1.54-.13,2.25-0.82,2.34-2.69h2.19v2.55h2.88v2.17h-2.88v4.48a1,1,0,0,0,1.12,1.22,2.4,2.4,0,0,0,1.41-.46Z" transform="translate(-137.6 -101.48)"/></svg>