<?xml version="1.0" encoding="utf-8"?>
<!-- Generator: Adobe Illustrator 19.2.1, SVG Export Plug-In . SVG Version: 6.00 Build 0)  -->
<svg version="1.1" id="Layer_1" xmlns="http://www.w3.org/2000/svg" xmlns:xlink="http://www.w3.org/1999/xlink" x="0px" y="0px"
	 viewBox="0 0 69 58" style="enable-background:new 0 0 69 58;" xml:space="preserve">
<style type="text/css">
	.st0{fill:#FFFFFF;}
</style>
<path class="st0" d="M34.9,7.2c-16.3,0-29.5,10-29.5,22.4S18.7,52.8,35,52.8s29.6-10.9,29.6-23.2C64.5,17.2,51.2,7.2,34.9,7.2
	 M24.1,11c0.1,0.1,0.2,0.2,0.2,0.2l1.2,1.1l0.7,0.7c0.5,0.5,3.5,2.6,4.5,3.5c1.7,1.6,3,4.2,3.3,6.7l1.3,6.9l0.5,1.1l0.1,0.2l0.2,0.4
	c0.2,0.5,0.5,0.8,0.5,0.9l0.7,0.6l1,1l0.3,0.3l0.5,0.5l1.4,0.2c0.8,0.1,1.4,0.2,1.7,0.6c0.6,0.7-0.5,1.1-1.3,1.3
	c-0.3,0-1.5-0.2-1.5-0.2l-0.8-0.6l-1.1-0.7l-0.3-0.2L36.3,35L34,31.3c0.2-0.7-0.2-1.3-0.2-1.3l-0.2,0.4c-0.1,0.4-0.5,0.8-1.2,1.2
	l-0.2,0.1l2.4,3.4l0.1,0.2l0.5,0.6c0.1,0.1,1,0.6,1,0.6l0.4,0.2l1.1,0.7l1,0.7h0.1l1.5,0.1c0.9,0.1,1.4,0.1,1.8,0.6
	c0.6,0.7-0.2,1.2-1,1.4c-0.6-0.4-1.7-0.7-3.5-0.7L36.7,39l-0.3-0.2L35,38.1l-1.2-0.4l0,0l-0.3-0.5c-0.4-0.7-0.9-1.4-1.4-2V35
	c0,0-0.8-1.1-0.9-1.3c0.3-0.6,0-1.3,0-1.3s-0.1,0.3-0.4,0.5c-0.2,0.3-0.8,0.8-1.2,1L29.4,34l3,4.1l0.3,0.4l0.2,0.2
	c0.1,0.1,1,0.4,1,0.4c0.7,0.3,1.5,0.7,2,0.9l1.1,0.6c0.1,0,1.2,0,2,0c0.9,0.1,1.6,0.4,2,0.9l0,0c0.6,0.7-0.9,1.2-1.7,1.4
	c-0.2-0.6-0.9-1.2-3-1.4c-0.7,0-1.8,0.1-1.8,0.1h-0.1l-1-0.7L33,40.7c-0.1,0-1.4-0.7-1.4-0.7l-0.9-0.3l-0.8-1.1l-0.3-0.4L28.8,37
	l-0.4-0.5l-0.5-0.7c0,0,0.5-0.6,0.4-1.4c-0.1,0.1-0.1,0.1-0.4,0.4c-0.3,0.3-1.3,0.7-1.9,0.9l-0.3,0.1l2.3,3l1.1,1.5l0.5,0.5l1,0.6
	l1,0.5l0.1,0.1l0.7,0.4l1.2,0.7c0.1,0,0.2,0,0.2,0l1.6-0.1c0.9,0,1.6-0.1,2.3,0.2c1.5,1.1-1.9,1.6-2.3,1.7c-2-0.1-4.4-0.6-5.9-1.2
	c-2.3-1-3-1.9-4.8-4.4L24,38.7c0-0.7-0.2-1.4-0.5-2s-0.7-0.9-0.8-1c0.1-0.4,0.2-1,0.2-1.6c0-0.8-0.2-1.7-0.4-2.1
	c1.4-1.1,2.1-2.2,2.1-3.5c0-0.6-0.3-1.5-0.3-1.5l-0.5-0.2v0.4c0.2,2.2-1.8,3.6-3.1,4.5L20.3,32l0.3,0.2c1,0.7,1.1,2.8,0.8,4.1v0.1
	l0.1,0.1h0.1l0.5,0.4c1.1,1.4,1,3.6-0.2,4.9c-0.2,0.2-0.4,0.3-0.4,0.3c-0.2,0-0.3-0.4-0.3-0.6l-0.3-0.7c-0.9-1.9-1.7-3.5-3.4-5.6V35
	c-0.3-2.8-0.8-4.8-1.2-6.8L15.6,27v-0.3c0.1-2.1,0.8-3.8,1.5-5.7l0.5-1.2l0.2-0.5l0.2-0.5c0.1-0.6-1-1.1-1.8-1.5c0,0-1-0.5-1.4-0.8
	C17.3,14.3,20.5,12.3,24.1,11 M30.6,45.7c-2.4,1.4-4.4,0.5-3.2-1.1C28.1,45.1,29.6,45.5,30.6,45.7 M24.9,42.5c0.3,0.3,1.7,1.4,2,1.6
	C25,44.9,23.6,43.8,24.9,42.5 M32.1,47.4c-0.9-0.1-0.8-0.9-0.8-0.9c0-0.1,0-0.2,0.1-0.3l0.2-0.2c1.8,0.2,3,0.1,4.4-0.1
	c1.8-0.4,2.7-1.1,3-1.6c4.2-1.2,2.9-3.1,2.8-3.2c3.1-1.4,0.7-3.4,0.3-3.6c2.8-1.3,0.6-2.7-1.4-3.3l-1.1-0.3l0,0l-0.4-0.5l-0.1-0.1
	l-1-1l-0.5-0.4l-0.4-1.1l-0.6-1.4c-0.1-0.4-0.2-1.1-0.4-2.1l-0.1-0.7l-0.4-2.9l0.1-0.6c0.2-1.1,0.6-2.3,1.2-3.6
	c0.7-1.5,2.2-2.6,2.3-2.6c1.2-0.8,3.1-2.5,3.2-2.7l0.7-0.7l0.4-0.4c0,0,1.3-1.3,1.8-1.8c3.6,1.4,6.8,3.4,9.3,5.9
	c-0.3,0.2-0.7,0.5-0.7,0.5c-1.1,0.6-3,1.6-2.6,2.5l0.1,0.3l0.2,0.5v0.1l0.3,0.7l0.1,0.2l0.2,0.4l0.6,2.1c0.5,2.1,0.8,3.9,0.8,5.4
	v0.2l-0.7,2c-0.7,2.1-1.6,4.6-1.8,5.7v0.1c-1.9,2-3.3,4.4-3.9,5.8c-0.1,0.2-0.2,0.2-0.2,0.2c-0.1,0-0.3-0.2-0.4-0.3
	c-0.5-0.4-0.8-1.4-0.7-2.3c0-1.2,0.6-2.2,1.4-2.9c0.1-0.1,0.1-0.3,0.1-0.4c-0.2-1.3,0.1-3.4,1-4l0.2-0.2l-0.2-0.2
	c-2.4-1.8-3.5-5.3-3.6-7.8v-0.3l-0.4,0.2L44.3,26c-0.1,0.5-0.1,1-0.1,1.5c0,1.3,0.3,2.4,0.4,2.9c0.3,1.4,1,2.7,2,3.9c0,0,0,0,0,0.1
	c-0.4,0.6-0.6,1.9-0.6,3c0,0.3,0,0.6,0.1,0.8c-1.1,1-1.4,2.2-1.5,3v0.9l-0.5,0.7L44,43c-1.3,1-2.1,2-3.8,3
	C38.2,47,34.5,47.6,32.1,47.4"/>
<polygon class="st0" points="58.5,47.2 58.5,49.6 58.2,49.6 58.2,47.2 57.2,47.2 57.2,46.9 59.4,46.9 59.4,47.2 "/>
<polygon class="st0" points="62.2,49.6 62.2,47.3 61.3,49.6 61.1,49.6 60.2,47.3 60.2,49.6 59.9,49.6 59.9,46.9 60.4,46.9 
	61.2,49.1 62,46.9 62.6,46.9 62.6,49.6 "/>
</svg>
