<?xml version="1.0" encoding="utf-8"?>
<!-- Generator: Adobe Illustrator 19.2.1, SVG Export Plug-In . SVG Version: 6.00 Build 0)  -->
<svg version="1.1" id="Layer_1" xmlns="http://www.w3.org/2000/svg" xmlns:xlink="http://www.w3.org/1999/xlink" x="0px" y="0px"
	 viewBox="0 0 186.4 22.9" style="enable-background:new 0 0 186.4 22.9;" xml:space="preserve">
<style type="text/css">
	.st0{fill:#001C71;}
</style>
<title>AllstateDS_tagline</title>
<path class="st0" d="M184.9,18.9c-0.8,0-1.4-0.6-1.5-1.4c0-0.1,0-0.1,0-0.2c-0.1-0.8,0.6-1.5,1.4-1.6c0,0,0,0,0,0h0.1
	c0.8,0,1.4,0.6,1.5,1.4c0,0.1,0,0.1,0,0.2c0.1,0.7-0.4,1.4-1.1,1.6C185.2,18.9,185,18.9,184.9,18.9 M184.9,16
	c-0.7,0-1.3,0.6-1.3,1.3c-0.1,0.6,0.4,1.2,1,1.3c0.1,0,0.2,0,0.3,0c0.7,0,1.3-0.6,1.3-1.3c0.1-0.6-0.4-1.2-1-1.3
	C185.1,16,185,16,184.9,16 M185.4,18.1l-0.5-0.7h-0.1v0.7h-0.3v-1.7h0.5c0.3-0.1,0.6,0.1,0.7,0.4c0,0,0,0.1,0,0.1
	c0,0.2-0.2,0.5-0.4,0.5l0.5,0.7L185.4,18.1L185.4,18.1z M184.9,16.6h-0.3v0.5h0.3c0.1,0,0.3-0.1,0.3-0.3
	C185.3,16.8,185.2,16.6,184.9,16.6"/>
<path class="st0" d="M106.1,0.8L94.5,19.4h3.9c0,0,2.9-4.6,2.9-4.7h6.6v4.7h3.7V0.8C111.6,0.8,106.1,0.8,106.1,0.8z M107.9,11.3
	h-4.5c0.3-0.4,4.6-7.4,4.6-7.4v7.4H107.9z"/>
<rect x="114.4" y="0.8" class="st0" width="3.6" height="18.5"/>
<rect x="120.6" y="0.8" class="st0" width="3.6" height="18.5"/>
<path class="st0" d="M132.1,10.6c-2-0.5-2.4-0.8-2.4-1.6s0.7-1.2,1.7-1.2c1.4,0,2.8,0.4,4.1,1.2l0.1,0.1l0.5-3H136
	c-1.4-0.7-3-1-4.6-0.9c-1.5-0.1-2.9,0.5-3.9,1.5c-0.7,0.8-1,1.7-1.1,2.8c0,2.9,1.4,3.7,4.6,4.5c2.1,0.5,2.5,0.8,2.5,1.8
	s-0.5,1.3-2,1.3c-1.7,0-3.3-0.6-4.7-1.6l-0.3-0.1l-0.5,3.2h0.1c1.6,0.9,3.4,1.3,5.3,1.3c1.6,0.1,3.2-0.4,4.5-1.5
	c0.7-0.8,1.1-1.8,1.1-2.9C136.8,12.1,135.4,11.5,132.1,10.6"/>
<path class="st0" d="M145.6,16.2h-0.1c-0.3,0.1-0.7,0.2-1.1,0.1c-0.8,0.1-1.5-0.4-1.6-1.2c0-0.1,0-0.2,0-0.3V8.2h2.6v-3h-2.6V0.8
	h-3.6v4.5h-1.8v3h1.8v7.1c0,2.8,1.4,4.2,4.5,4.2c0.7,0,1.4-0.1,2.1-0.3h0.1L145.6,16.2z"/>
<path class="st0" d="M153.4,5c-1.8,0-3.6,0.4-5.3,1H148l0.5,3l0.3-0.1c1.4-0.6,2.8-1,4.3-1.1c1.4,0,2.1,0.5,2.1,1.8v0.4
	c-5.4,0.5-7.9,2.4-7.9,5.5c-0.1,2.1,1.4,3.8,3.5,3.9c0,0,0,0,0,0h0.4c1.6,0,3.1-0.7,4.2-1.8c0.1,0.5,0.2,1,0.3,1.6h3.1V9.6
	C158.6,6.4,156.9,5,153.4,5 M152.1,16.7c-0.7,0.1-1.4-0.4-1.4-1.2c0-0.1,0-0.2,0-0.3c0-1.6,1.4-2.6,4.3-2.9v3
	C154.2,16.2,153.2,16.7,152.1,16.7"/>
<path class="st0" d="M167.8,16.1h-0.1c-0.3,0.1-0.7,0.2-1.1,0.1c-0.8,0.1-1.5-0.4-1.6-1.2c0-0.1,0-0.3,0-0.4V8.1h2.6v-3H165V0.7
	h-3.6v4.5h-1.8v3h1.8v7.1c0,2.8,1.4,4.2,4.5,4.2c0.7,0,1.4-0.1,2.1-0.3h0.1L167.8,16.1z"/>
<path class="st0" d="M180.2,15.1c-1.3,1-2.8,1.6-4.4,1.6c-2,0-3.1-1.3-3.3-3.5h8.4v-0.9c0-4.7-2-7.2-5.9-7.2
	c-1.6-0.1-3.1,0.5-4.2,1.6c-1.4,1.6-2.1,3.7-2,5.8c0,4.5,2.5,7.2,6.6,7.2c1.9,0,3.8-0.5,5.4-1.6h0.1l-0.4-2.9L180.2,15.1L180.2,15.1
	z M172.6,10.7c0.1-2,1.1-3.2,2.4-3.2c1.8,0,2.4,1.7,2.5,3.2H172.6z"/>
<path class="st0" d="M6.3,19.6c-2.8,0.2-5.2-1.8-5.4-4.6c0-0.2,0-0.5,0-0.7c-0.2-2.8,2-5.2,4.7-5.3c0.2,0,0.4,0,0.7,0
	c2.8-0.2,5.2,1.9,5.4,4.7c0,0.2,0,0.4,0,0.7c0.2,2.8-2,5.1-4.7,5.3C6.8,19.7,6.5,19.7,6.3,19.6z M6.3,11.4c-1.5,0-2.4,1.2-2.4,2.9
	s0.9,2.9,2.4,2.9s2.4-1.2,2.4-2.9S7.9,11.4,6.3,11.4z"/>
<path class="st0" d="M13.6,19.4V9.2h2.8v1.2C17.2,9.5,18.3,9,19.5,9c2.3,0,3.5,1.6,3.5,3.7v6.7h-2.9v-6.1c0.2-0.8-0.4-1.6-1.2-1.8
	c-0.1,0-0.3,0-0.4,0c-1.1,0-2,0.8-2,1.9c0,0,0,0,0,0c0,0.1,0,0.1,0,0.2v5.8L13.6,19.4L13.6,19.4z"/>
<path class="st0" d="M25.4,19.4V5.7h2.8v13.7H25.4z"/>
<path class="st0" d="M36.4,19.7c-0.8,2.1-1.8,3.2-3.9,3.2c-0.9,0-1.7-0.2-2.4-0.6l0.8-2.1c0.3,0.3,0.8,0.4,1.2,0.4
	c0.6,0,1.1-0.4,1.3-1l0.2-0.5l-4.2-9.9h3.2l2.4,6.5l2.2-6.5h3.1L36.4,19.7z"/>
<path class="st0" d="M52.6,7.9c-0.4-0.1-0.7-0.2-1.1-0.2c-0.5-0.1-0.9,0.2-1,0.7c0,0.1,0,0.2,0,0.3v0.6h2.1v2.2h-2.1v8h-2.8v-8h-1.6
	V9.2h1.6V8.5c0-1.8,1.2-3.1,3.5-3.1c0.6,0,1.2,0.1,1.7,0.2L52.6,7.9z"/>
<path class="st0" d="M60.3,12.2c-0.3-0.2-0.7-0.3-1.1-0.3c-1.3,0-2.2,1.1-2.2,2.7v4.9h-2.8V9.2H57v1.6c0.5-1,1.6-1.7,2.7-1.8
	c0.4,0,0.8,0.1,1.2,0.2L60.3,12.2z"/>
<path class="st0" d="M66.8,19.6c-2.8,0.2-5.2-1.8-5.4-4.6c0-0.2,0-0.5,0-0.7c0.1-3,2.7-5.3,5.6-5.2c2.8,0.1,5.1,2.4,5.2,5.2
	c0.2,2.8-1.9,5.1-4.7,5.3C67.3,19.7,67.1,19.7,66.8,19.6z M66.8,11.4c-1.5,0-2.4,1.2-2.4,2.9s0.8,2.9,2.4,2.9s2.4-1.2,2.4-2.9
	S68.4,11.4,66.8,11.4z"/>
<path class="st0" d="M74.2,9.2H77v1.2C77.7,9.5,78.9,9,80,9c1.2-0.1,2.4,0.6,2.9,1.8C83.7,9.7,84.9,9,86.3,9c2.3,0,3.4,1.6,3.4,3.7
	v6.7h-2.9v-6.1c0.2-0.8-0.3-1.6-1.2-1.8c-0.1,0-0.3,0-0.4,0c-1,0-1.9,0.8-1.9,1.8c0,0.1,0,0.2,0,0.3v5.8h-2.8v-6.1
	c0.2-0.8-0.4-1.6-1.2-1.8c-0.1,0-0.3,0-0.4,0c-1,0-1.9,0.8-1.9,1.8c0,0.1,0,0.2,0,0.3v5.8h-2.8L74.2,9.2L74.2,9.2L74.2,9.2z"/>
</svg>
