<?xml version="1.0" encoding="utf-8"?>
<!-- Generator: Adobe Illustrator 19.2.1, SVG Export Plug-In . SVG Version: 6.00 Build 0)  -->
<svg version="1.1" id="Layer_1" xmlns="http://www.w3.org/2000/svg" xmlns:xlink="http://www.w3.org/1999/xlink" x="0px" y="0px"
	 viewBox="0 0 80.8 25.3" style="enable-background:new 0 0 80.8 25.3;" xml:space="preserve">
<style type="text/css">
	.st0{fill:#FFFFFF;}
</style>
<title>Allstate_home</title>
<path class="st0" d="M79.5,16.2c-0.7,0-1.3-0.5-1.3-1.2c0,0,0,0,0,0l0,0v-0.1c0-0.7,0.6-1.3,1.3-1.3c0.7,0,1.3,0.6,1.3,1.3
	C80.8,15.6,80.2,16.2,79.5,16.2z M79.5,13.7c-0.6,0-1.1,0.5-1.1,1.1v0.1c0,0.6,0.5,1.1,1.1,1.1c0.6,0,1.1-0.5,1.1-1.1c0,0,0,0,0,0
	l0,0C80.6,14.3,80.2,13.8,79.5,13.7C79.6,13.7,79.5,13.7,79.5,13.7z M79.9,15.6L79.5,15h-0.2v0.5h-0.2v-1.4h0.4
	c0.2,0,0.5,0.1,0.5,0.4c0,0,0,0,0,0v0.1c0,0.2-0.1,0.4-0.3,0.4c0,0,0,0,0,0L79.9,15.6C80,15.6,79.9,15.6,79.9,15.6z M79.5,14.3h-0.2
	v0.4h0.2c0.1,0,0.2-0.1,0.3-0.2C79.7,14.4,79.6,14.3,79.5,14.3C79.5,14.3,79.5,14.3,79.5,14.3z"/>
<path class="st0" d="M10.3,0l-10,16.2h3.4L6.3,12H12v4.2h3.2V0H10.3z M12,9.2H8l4-6.4V9.2z"/>
<rect x="17.6" class="st0" width="3.2" height="16.2"/>
<rect x="23.1" class="st0" width="3.1" height="16.2"/>
<path class="st0" d="M33.2,8.5c-1.7-0.4-2.1-0.7-2-1.4c0.1-0.6,0.7-1.1,1.3-1c0,0,0.1,0,0.1,0h0.1c1.3,0,2.5,0.4,3.6,1l0.1,0.2
	l0.4-2.7h-0.1C35.4,4,34,3.8,32.6,3.8c-1.3-0.1-2.6,0.4-3.5,1.3c-0.6,0.6-1,1.5-0.9,2.4c0.1,2.5,1.2,3.2,4.1,3.9
	c1.9,0.5,2.2,0.7,2.2,1.6s-0.5,1.1-1.8,1.1c-1.5-0.1-2.9-0.5-4.1-1.3l-0.2-0.3L28,15.2l0,0c1.4,0.7,3,1.1,4.6,1.1
	c1.4,0.1,2.8-0.3,3.9-1.2c0.6-0.7,1-1.6,0.9-2.6C37.4,9.9,36,9.3,33.2,8.5z"/>
<path class="st0" d="M45,13.5L45,13.5c-0.4,0.1-0.7,0.1-1,0.1c-0.7,0.1-1.3-0.4-1.4-1V6.5h2.3V3.9h-2.2V0h-3.1v3.9H38v2.6h1.6v6.2
	c0,2.5,1.3,3.7,4,3.7c0.6,0,1.2-0.1,1.8-0.2h0.2L45,13.5z"/>
<path class="st0" d="M51.8,3.6c-1.6,0-3.1,0.3-4.6,0.9H47l0.4,2.6L47.6,7c1.2-0.6,2.5-0.9,3.8-0.9c1.2,0,1.8,0.5,1.8,1.6V8
	c-4.7,0.5-6.9,2.1-6.9,4.9c-0.1,1.7,1.2,3.3,2.9,3.4c0,0,0,0,0.1,0h0.4c1.4,0,2.7-0.6,3.7-1.6l0.2,1.4h2.7V7.8
	C56.4,5,54.9,3.6,51.8,3.6z M50.7,14c-0.7,0.1-1.2-0.4-1.3-1.1v-0.2c0-1.4,1.3-2.2,3.8-2.6v2.6C52.6,13.5,51.7,14,50.7,14z"/>
<path class="st0" d="M64.5,13.5h-0.2c-0.3,0.1-0.6,0.1-0.9,0.1c-0.6,0.2-1.2-0.1-1.4-0.7c0-0.1,0-0.1,0-0.2V6.5h2.3V3.9H62V0h-3v3.9
	h-1.7v2.6H59v6.2c0,2.5,1.3,3.7,3.9,3.7c0.6,0,1.2-0.1,1.8-0.2h0.1L64.5,13.5z"/>
<path class="st0" d="M75.3,12.5c-1.1,0.9-2.5,1.4-3.9,1.4c-1.7,0-2.8-1.1-2.9-3.1h7.4V10c0-4.2-1.7-6.3-5.2-6.3
	C69.3,3.6,68,4.1,67,5.1c-1.2,1.4-1.8,3.2-1.7,5c0,3.9,2.2,6.4,5.8,6.4c1.7,0,3.3-0.4,4.7-1.4l0.1-0.1l-0.3-2.6L75.3,12.5z
	 M68.5,8.7c0.1-1.8,0.9-2.8,2.1-2.8c1.6,0,2.1,1.5,2.1,2.8H68.5z"/>
<polygon class="st0" points="3.9,25.1 3.9,22.4 1.2,22.4 1.2,25.1 0,25.1 0,18.9 1.2,18.9 1.2,21.3 3.9,21.3 3.9,18.9 5.1,18.9 
	5.1,25.1 "/>
<path class="st0" d="M9,25.3c-1.6,0-2.9-1.3-2.9-2.9v-0.3c-0.2-1.6,0.9-3,2.5-3.2c0,0,0.1,0,0.1,0h0.4c1.8,0,2.9,1.3,2.9,3.2
	c0.2,1.6-0.9,3-2.5,3.2c0,0-0.1,0-0.1,0C9.4,25.3,9,25.3,9,25.3z M9,19.8c-1.1,0-1.7,0.9-1.7,2.2S8,24.2,9,24.2s1.7-0.9,1.7-2.2
	S10.2,19.7,9,19.8L9,19.8z"/>
<polygon class="st0" points="18.9,25.1 18.6,20.6 17,25.1 16,25.1 14.4,20.6 14,25.1 13,25.1 13.4,18.9 15,18.9 16.6,23.6 
	18.1,18.9 19.6,18.9 20.1,25.1 "/>
<polygon class="st0" points="21.3,25.1 21.3,18.9 24.9,18.9 24.9,19.9 22.4,19.9 22.4,21.4 24.3,21.4 24.5,22.4 22.4,22.4 
	22.4,24.1 25,24.1 25,25.1 "/>
<rect x="27.9" y="18.9" class="st0" width="1.2" height="6.3"/>
<polygon class="st0" points="34.6,25.1 31.6,20.8 31.6,25.1 30.5,25.1 30.5,18.9 31.7,18.9 34.5,23 34.5,18.9 35.6,18.9 35.6,25.1 
	"/>
<path class="st0" d="M38.6,25.2c-0.7,0-1.4-0.1-2-0.4l0.2-1.1c0.5,0.3,1.2,0.5,1.8,0.5c0.4,0.1,0.8-0.2,0.9-0.6v-0.1
	c0-0.5-0.2-0.6-1.1-1c-1.2-0.5-1.7-0.9-1.7-1.9c0-1,0.8-1.8,1.8-1.8c0,0,0,0,0,0h0.2c0.6,0,1.2,0.1,1.7,0.4l-0.1,1
	c-0.4-0.3-1-0.5-1.5-0.5c-0.3-0.1-0.7,0.1-0.8,0.4c0,0,0,0,0,0.1v0.1c0,0.4,0.2,0.6,1.1,1c1.3,0.5,1.8,1,1.8,1.9
	c0,1-0.8,1.9-1.8,1.9L38.6,25.2z"/>
<path class="st0" d="M44.2,25.3c-1.2,0.1-2.4-0.8-2.5-2c0,0,0-0.1,0-0.1v-4.3h1.2v3.8c-0.1,0.7,0.3,1.4,1,1.5c0,0,0,0,0,0h0.3
	c0.7,0,1.3-0.5,1.4-1.2v-4.1h1.1v3.8c0.1,1.3-0.8,2.4-2.1,2.6H44.2z"/>
<path class="st0" d="M52.6,25l-1.2,0.2l-1.7-2.5h-0.5v2.4H48v-6.3h1.9c1.4,0,2.2,0.7,2.2,1.9c0,0.8-0.5,1.5-1.2,1.8L52.6,25z
	 M49.8,19.9h-0.7v2h0.6c0.6,0.1,1-0.3,1.1-0.9C50.9,20.4,50.5,20,49.8,19.9C49.9,19.9,49.8,19.9,49.8,19.9z"/>
<path class="st0" d="M57.6,25.2L57,23.5h-2.3l-0.6,1.6H53l2.3-6.3h1.3l2.3,6.1L57.6,25.2z M55.8,20.2L55,22.6h1.7L55.8,20.2z"/>
<polygon class="st0" points="63.7,25.1 60.8,20.8 60.8,25.1 59.7,25.1 59.7,18.9 60.8,18.9 63.6,23 63.6,18.9 64.7,18.9 64.7,25.1 
	"/>
<path class="st0" d="M68.8,25.3c-1.6,0.1-2.9-1.1-3-2.7c0,0,0-0.1,0-0.1v-0.4c-0.1-1.6,1-3,2.7-3.2c0,0,0,0,0,0h0.3
	c0.6,0,1.3,0.2,1.8,0.5l-0.2,1.1c-0.4-0.3-1-0.5-1.5-0.5c-1.1,0-1.8,0.8-1.8,2.2s0.7,2.2,1.8,2.2c0.6,0,1.1-0.2,1.6-0.5l0.2,1
	C70.1,25.1,69.5,25.3,68.8,25.3z"/>
<polygon class="st0" points="71.7,25.1 71.7,18.9 75.4,18.9 75.4,19.9 72.9,19.9 72.9,21.4 74.8,21.4 75,22.4 72.9,22.4 72.9,24.1 
	75.5,24.1 75.5,25.1 "/>
</svg>
