<svg id="Layer_1" data-name="Layer 1" xmlns="http://www.w3.org/2000/svg" width="81.25" height="25.76" viewBox="0 0 81.25 25.76"><defs><style>.cls-1{fill:#fff;}</style></defs><title>AllstateDS_H</title><path d="M79.94,16.68a1.26,1.26,0,0,1-1.31-1.18V15.38a1.31,1.31,0,1,1,1.32,1.3h0Zm0-2.52a1.09,1.09,0,0,0-1.12,1.18,1.12,1.12,0,0,0,2.24,0h0a1.09,1.09,0,0,0-1-1.17H79.94Zm0.39,1.9-0.44-.63H79.74V16H79.5V14.56h0.45a0.44,0.44,0,0,1,.52.43,0.4,0.4,0,0,1-.3.41L80.5,16Zm-0.4-1.31H79.74v0.44h0.18A0.22,0.22,0,1,0,80,14.75h0Z"/><path d="M10.82,0.5L0.76,16.68H4.18L6.75,12.5H12.5v4.17h3.25V0.5H10.82ZM12.5,9.65h-4l4-6.44V9.65Z"/><rect x="18.08" y="0.5" width="3.16" height="16.18"/><rect x="23.54" y="0.5" width="3.15" height="16.18"/><path d="M33.63,9c-1.72-.45-2.08-0.7-2-1.41a1.21,1.21,0,0,1,1.38-1h0.07a7.73,7.73,0,0,1,3.57,1L36.8,7.75l0.43-2.7h-0.1a9.9,9.9,0,0,0-4.08-.82A4.77,4.77,0,0,0,29.59,5.5a3.28,3.28,0,0,0-.93,2.4c0.06,2.5,1.24,3.2,4.06,3.93,1.86,0.46,2.24.73,2.23,1.62S34.5,14.5,33.2,14.5a7.8,7.8,0,0,1-4.11-1.34L28.9,13l-0.45,2.68H28.5A10,10,0,0,0,33,16.86a5.28,5.28,0,0,0,3.87-1.23,3.45,3.45,0,0,0,.92-2.57C37.85,10.42,36.5,9.75,33.63,9Z"/><path d="M45.5,14H45.38a3.29,3.29,0,0,1-.87.09,1.18,1.18,0,0,1-1.36-1.3V7H45.5V4.4H43.15V0.5h-3.1V4.39H38.43V7H40v6.21C40,15.7,41.33,16.9,44,16.9a7.89,7.89,0,0,0,1.84-.2H46Z"/><path d="M52.27,4.14a12.16,12.16,0,0,0-4.62.94l-0.15,0,0.4,2.63,0.18-.08a9.22,9.22,0,0,1,3.78-.92c1.24,0,1.83.51,1.83,1.62V8.66c-4.66.48-6.93,2.07-6.93,4.86a3.19,3.19,0,0,0,3.41,3.4,5.12,5.12,0,0,0,3.73-1.59l0.22,1.35h2.73V8.26C56.88,5.45,55.41,4.14,52.27,4.14ZM51.18,14.5a1.16,1.16,0,0,1-1.26-1.24c0-1.36,1.31-2.25,3.8-2.59V13.3A3.66,3.66,0,0,1,51.18,14.5Z"/><path d="M65,14H64.81a3.29,3.29,0,0,1-.86.09,1.18,1.18,0,0,1-1.45-1.3V7h2.32V4.4H62.5V0.5h-3V4.39H57.85V7H59.5v6.21c0,2.46,1.29,3.66,3.94,3.66a8,8,0,0,0,1.84-.2h0.14Z"/><path d="M75.8,13a6.52,6.52,0,0,1-3.87,1.4c-1.69,0-2.75-1.15-2.93-3.14h7.36V10.43c0-4.17-1.73-6.28-5.15-6.29A5,5,0,0,0,67.5,5.5a6.93,6.93,0,0,0-1.73,5c0,3.92,2.22,6.35,5.77,6.35a8.1,8.1,0,0,0,4.72-1.35l0.08-.05L76,12.88ZM69,9.19c0.14-1.76.91-2.78,2.12-2.78,1.63,0,2.06,1.47,2.13,2.78H69Z"/><polygon points="4.37 25.63 4.37 22.9 1.71 22.9 1.71 25.63 0.5 25.63 0.5 19.36 1.71 19.36 1.71 21.83 4.37 21.83 4.37 19.36 5.57 19.36 5.57 25.63 4.37 25.63"/><path d="M9.5,25.75A2.92,2.92,0,0,1,6.61,22.5a2.94,2.94,0,0,1,2.6-3.24H9.56c1.8,0,2.93,1.31,2.93,3.24a2.94,2.94,0,0,1-2.6,3.24H9.5Zm0-5.5c-1.07,0-1.72.88-1.72,2.25S8.5,24.75,9.5,24.75s1.72-.88,1.72-2.25-0.56-2.26-1.72-2.26h0Z"/><polygon points="19.39 25.63 19.06 21.05 17.48 25.64 16.43 25.64 14.84 21.05 14.52 25.63 13.44 25.63 13.92 19.36 15.45 19.36 17.04 24.09 18.61 19.36 20.11 19.36 20.59 25.63 19.39 25.63"/><polygon points="21.73 25.63 21.73 19.36 25.37 19.36 25.37 20.38 22.92 20.38 22.92 21.85 24.81 21.85 24.98 22.88 22.92 22.88 22.92 24.61 25.46 24.61 25.46 25.63 21.73 25.63"/><rect x="28.42" y="19.36" width="1.21" height="6.26"/><polygon points="35.06 25.63 32.11 21.31 32.11 25.63 30.99 25.63 30.99 19.36 32.13 19.36 34.94 23.46 34.94 19.36 36.06 19.36 36.06 25.63 35.06 25.63"/><path d="M39.08,25.7a4.54,4.54,0,0,1-2-.44l0.18-1.1a3.73,3.73,0,0,0,1.81.55A0.79,0.79,0,0,0,40,23.95c0-.46-0.22-0.65-1.12-1-1.22-.5-1.71-0.9-1.71-1.87A1.79,1.79,0,0,1,39,19.32h0.18a3.37,3.37,0,0,1,1.65.38l-0.12,1a2.8,2.8,0,0,0-1.48-.49,0.71,0.71,0,0,0-.86.67c0,0.4.2,0.59,1.07,1,1.29,0.53,1.76,1,1.76,1.94a1.85,1.85,0,0,1-1.85,1.85Z"/><path d="M44.65,25.75a2.32,2.32,0,0,1-2.5-2.53V19.36h1.2v3.78a1.31,1.31,0,0,0,1,1.53h0.27A1.29,1.29,0,0,0,46,23.15v-3.8h1.21v3.81A2.36,2.36,0,0,1,44.65,25.75Z"/><path d="M53.06,25.5l-1.23.23-1.63-2.5H49.65v2.4h-1.2V19.36h1.94c1.4,0,2.24.66,2.24,1.88A1.75,1.75,0,0,1,51.38,23Zm-2.75-5.14H49.64v2h0.61a1,1,0,1,0,.21-2H50.31Z"/><path d="M58.09,25.69L57.5,24H55.13L54.5,25.63H53.36l2.35-6.29H57l2.3,6.16Zm-1.79-5L55.45,23.1h1.71Z"/><polygon points="64.22 25.63 61.27 21.31 61.27 25.63 60.15 25.63 60.15 19.36 61.28 19.36 64.1 23.46 64.1 19.36 65.21 19.36 65.21 25.63 64.22 25.63"/><path d="M69.26,25.75a2.91,2.91,0,0,1-3-3.23A3,3,0,0,1,69,19.28h0.26a3.27,3.27,0,0,1,1.75.45l-0.17,1.13a2.51,2.51,0,0,0-1.52-.55c-1.11,0-1.82.83-1.82,2.19s0.73,2.2,1.83,2.2a2.87,2.87,0,0,0,1.59-.53l0.16,1A3.44,3.44,0,0,1,69.26,25.75Z"/><polygon points="72.21 25.63 72.21 19.36 75.85 19.36 75.85 20.38 73.4 20.38 73.4 21.85 75.29 21.85 75.45 22.88 73.4 22.88 73.4 24.61 75.94 24.61 75.94 25.63 72.21 25.63"/><path class="cls-1" d="M79.44,16.18A1.26,1.26,0,0,1,78.13,15h0V14.85A1.31,1.31,0,1,1,79.44,16.18Zm0-2.52a1.09,1.09,0,0,0-1.12,1.18,1.12,1.12,0,0,0,2.24,0h0a1.09,1.09,0,0,0-1-1.17H79.44Zm0.39,1.9-0.44-.63H79.24V15.5H79V14.06h0.45a0.44,0.44,0,0,1,.52.43,0.4,0.4,0,0,1-.3.41L80,15.5Zm-0.4-1.31H79.24v0.44h0.18a0.22,0.22,0,1,0,.08-0.44H79.43Z"/><path class="cls-1" d="M10.32,0L0.26,16.18H3.68L6.25,12H12v4.17h3.25V0h-5ZM12,9.15H8l4-6.44V9.15Z"/><rect class="cls-1" x="17.58" width="3.16" height="16.18"/><rect class="cls-1" x="23.04" width="3.15" height="16.18"/><path class="cls-1" d="M33.13,8.5c-1.72-.45-2.08-0.7-2-1.41a1.21,1.21,0,0,1,1.38-1h0.07a7.73,7.73,0,0,1,3.57,1L36.3,7.25l0.43-2.7h-0.1a9.9,9.9,0,0,0-4.08-.82A4.77,4.77,0,0,0,29.09,5a3.28,3.28,0,0,0-.93,2.4c0.06,2.5,1.24,3.2,4.06,3.93,1.86,0.46,2.24.73,2.23,1.62S34,14,32.7,14a7.8,7.8,0,0,1-4.11-1.34l-0.19-.12L28,15.25H28a10,10,0,0,0,4.55,1.14,5.28,5.28,0,0,0,3.91-1.23,3.45,3.45,0,0,0,.92-2.57C37.35,9.92,36,9.25,33.13,8.5Z"/><path class="cls-1" d="M45,13.5H44.88a3.29,3.29,0,0,1-.87.09,1.18,1.18,0,0,1-1.36-1.3V6.5H45V3.9H42.65V0h-3.1V3.89H37.93V6.5H39.5v6.21c0,2.49,1.33,3.69,4,3.69a7.89,7.89,0,0,0,1.84-.2H45.5Z"/><path class="cls-1" d="M51.77,3.64a12.16,12.16,0,0,0-4.62.94H47l0.4,2.63,0.18-.08a9.22,9.22,0,0,1,3.78-.92c1.24,0,1.83.51,1.83,1.62V8.16c-4.66.48-6.93,2.07-6.93,4.86a3.19,3.19,0,0,0,3.41,3.4,5.12,5.12,0,0,0,3.73-1.59l0.22,1.35h2.73V7.76C56.38,4.95,54.91,3.64,51.77,3.64ZM50.68,14a1.16,1.16,0,0,1-1.26-1.24c0-1.36,1.31-2.25,3.8-2.59V12.8A3.66,3.66,0,0,1,50.68,14Z"/><path class="cls-1" d="M64.5,13.5H64.31a3.29,3.29,0,0,1-.86.09A1.18,1.18,0,0,1,62,12.29V6.5h2.32V3.9H62V0H59V3.89H57.35V6.5H59v6.21c0,2.46,1.29,3.66,3.94,3.66a8,8,0,0,0,1.84-.2h0.14Z"/><path class="cls-1" d="M75.3,12.5a6.52,6.52,0,0,1-3.87,1.4c-1.69,0-2.75-1.15-2.93-3.14h7.36V9.93c0-4.17-1.73-6.28-5.15-6.29A5,5,0,0,0,67,5a6.93,6.93,0,0,0-1.73,5c0,3.92,2.22,6.35,5.77,6.35A8.1,8.1,0,0,0,75.76,15l0.08-.05L75.5,12.33ZM68.5,8.69c0.14-1.76.91-2.78,2.12-2.78,1.63,0,2.06,1.47,2.13,2.78H68.5Z"/><polygon class="cls-1" points="3.87 25.13 3.87 22.4 1.21 22.4 1.21 25.13 0 25.13 0 18.86 1.21 18.86 1.21 21.33 3.87 21.33 3.87 18.86 5.07 18.86 5.07 25.13 3.87 25.13"/><path class="cls-1" d="M9,25.25A2.92,2.92,0,0,1,6.11,22a2.94,2.94,0,0,1,2.6-3.24H9.06c1.8,0,2.93,1.31,2.93,3.24a2.94,2.94,0,0,1-2.6,3.24H9Zm0-5.5c-1.07,0-1.72.88-1.72,2.25S8,24.25,9,24.25s1.72-.88,1.72-2.25S10.16,19.74,9,19.74H9Z"/><polygon class="cls-1" points="18.89 25.13 18.56 20.55 16.98 25.14 15.93 25.14 14.34 20.55 14.02 25.13 12.94 25.13 13.42 18.86 14.95 18.86 16.54 23.59 18.11 18.86 19.61 18.86 20.09 25.13 18.89 25.13"/><polygon class="cls-1" points="21.23 25.13 21.23 18.86 24.87 18.86 24.87 19.88 22.42 19.88 22.42 21.35 24.31 21.35 24.48 22.38 22.42 22.38 22.42 24.11 24.96 24.11 24.96 25.13 21.23 25.13"/><rect class="cls-1" x="27.92" y="18.86" width="1.21" height="6.26"/><polygon class="cls-1" points="34.56 25.13 31.61 20.81 31.61 25.13 30.49 25.13 30.49 18.86 31.63 18.86 34.44 22.96 34.44 18.86 35.56 18.86 35.56 25.13 34.56 25.13"/><path class="cls-1" d="M38.58,25.2a4.54,4.54,0,0,1-2-.44l0.18-1.1a3.73,3.73,0,0,0,1.81.55,0.79,0.79,0,0,0,.93-0.76c0-.46-0.22-0.65-1.12-1-1.22-.5-1.71-0.9-1.71-1.87a1.79,1.79,0,0,1,1.82-1.76h0.19a3.37,3.37,0,0,1,1.65.38l-0.12,1a2.8,2.8,0,0,0-1.48-.49,0.71,0.71,0,0,0-.86.67c0,0.4.2,0.59,1.07,1,1.29,0.53,1.76,1,1.76,1.94a1.85,1.85,0,0,1-1.85,1.85Z"/><path class="cls-1" d="M44.15,25.25a2.32,2.32,0,0,1-2.5-2.53V18.86h1.2v3.78a1.31,1.31,0,0,0,1,1.53h0.27a1.29,1.29,0,0,0,1.38-1.5v-3.8h1.21v3.81A2.36,2.36,0,0,1,44.15,25.25Z"/><path class="cls-1" d="M52.56,25l-1.23.23L49.7,22.73H49.15v2.4H48V18.86h1.94c1.4,0,2.24.66,2.24,1.88a1.75,1.75,0,0,1-1.25,1.76Zm-2.75-5.14H49.14v2h0.61a1,1,0,1,0,.21-2H49.81Z"/><path class="cls-1" d="M57.59,25.19L57,23.5H54.63L54,25.09H52.86l2.35-6.29H56.5l2.3,6.14Zm-1.79-5L55,22.6h1.71Z"/><polygon class="cls-1" points="63.72 25.13 60.77 20.81 60.77 25.13 59.65 25.13 59.65 18.86 60.78 18.86 63.6 22.96 63.6 18.86 64.71 18.86 64.71 25.13 63.72 25.13"/><path class="cls-1" d="M68.76,25.25a2.91,2.91,0,0,1-3-3.23,3,3,0,0,1,2.74-3.24h0.26a3.27,3.27,0,0,1,1.75.45l-0.17,1.13a2.51,2.51,0,0,0-1.52-.55c-1.11,0-1.79.84-1.79,2.21s0.73,2.2,1.83,2.2a2.87,2.87,0,0,0,1.64-.54l0.16,1A3.44,3.44,0,0,1,68.76,25.25Z"/><polygon class="cls-1" points="71.71 25.13 71.71 18.86 75.35 18.86 75.35 19.88 72.9 19.88 72.9 21.35 74.79 21.35 74.95 22.38 72.9 22.38 72.9 24.11 75.44 24.11 75.44 25.13 71.71 25.13"/></svg>