<?xml version="1.0" encoding="utf-8"?>
<!-- Generator: Adobe Illustrator 19.2.1, SVG Export Plug-In . SVG Version: 6.00 Build 0)  -->
<svg version="1.1" id="Layer_1" xmlns="http://www.w3.org/2000/svg" xmlns:xlink="http://www.w3.org/1999/xlink" x="0px" y="0px"
	 viewBox="0 0 70.6 15" style="enable-background:new 0 0 70.6 15;" xml:space="preserve">
<style type="text/css">
	.st0{fill:#FFFFFF;}
</style>
<title>AllstateDS</title>
<path class="st0" d="M68.8,13.8c-0.6,0-1.1-0.4-1.1-1c0,0,0-0.1,0-0.1c0-0.6,0.4-1.2,1.1-1.2c0,0,0,0,0,0c0.6,0,1.1,0.5,1.1,1.1
	c0,0,0,0.1,0,0.1c0.1,0.5-0.2,1.1-0.8,1.2C69,13.9,68.9,13.9,68.8,13.8 M68.8,11.7c-0.6,0-1,0.4-1,1c-0.1,0.5,0.3,0.9,0.8,1
	c0.1,0,0.1,0,0.2,0c0.6,0,1-0.4,1-1c0.1-0.5-0.3-0.9-0.8-1C68.9,11.6,68.8,11.6,68.8,11.7 M69.2,13.2l-0.4-0.5h-0.1v0.5h-0.2V12h0.4
	c0.2-0.1,0.4,0.1,0.5,0.3c0,0,0,0.1,0,0.1c0,0.2-0.1,0.3-0.3,0.4l0.4,0.5H69.2z M68.8,12.1h-0.2v0.4h0.2c0.1,0,0.2-0.1,0.2-0.2
	C69.1,12.2,69,12.1,68.8,12.1"/>
<path class="st0" d="M8.8,0.1L0,14.2h3c0,0,2.2-3.5,2.2-3.6h5v3.6H13V0.1H8.8z M10.2,8.1H6.8c0.2-0.3,3.5-5.6,3.5-5.6L10.2,8.1
	C10.3,8.1,10.2,8.1,10.2,8.1z"/>
<rect x="15.1" y="0.1" class="st0" width="2.7" height="14.1"/>
<rect x="19.8" y="0.1" class="st0" width="2.7" height="14.1"/>
<path class="st0" d="M28.6,7.5c-1.5-0.4-1.8-0.6-1.8-1.2s0.5-0.9,1.3-0.9c1.1,0,2.2,0.3,3.1,0.9l0.1,0.1l0.4-2.3h-0.1
	c-1.1-0.5-2.3-0.7-3.5-0.7c-1.1-0.1-2.2,0.3-3,1.1c-0.5,0.6-0.8,1.3-0.8,2.1c0,2.2,1.1,2.8,3.5,3.4c1.6,0.4,1.9,0.6,1.9,1.4
	s-0.4,1-1.5,1c-1.3,0-2.5-0.4-3.6-1.2l-0.2-0.1L24,13.5h0.1c1.2,0.6,2.6,1,4,1c1.2,0.1,2.5-0.3,3.4-1.1c0.5-0.6,0.8-1.4,0.8-2.2
	C32.2,8.7,31.1,8.2,28.6,7.5"/>
<path class="st0" d="M38.9,11.8L38.9,11.8c-0.4,0.1-0.6,0.1-0.9,0.1c-0.6,0.1-1.1-0.3-1.2-0.9c0-0.1,0-0.2,0-0.3v-5h2V3.4h-2V0.1
	h-2.7v3.4h-1.4v2.3h1.4v5.4c0,2.1,1.1,3.2,3.4,3.2c0.5,0,1.1-0.1,1.6-0.2h0.1L38.9,11.8z"/>
<path class="st0" d="M44.8,3.3c-1.4,0-2.7,0.3-4,0.8h-0.1l0.4,2.3l0.2-0.1c1-0.5,2.2-0.8,3.3-0.8c1.1,0,1.6,0.4,1.6,1.4v0.3
	c-4.1,0.4-6,1.8-6,4.2c-0.1,1.6,1.1,2.9,2.6,3c0.1,0,0.2,0,0.4,0c1.2,0,2.4-0.5,3.2-1.4c0.1,0.4,0.2,0.8,0.2,1.2H49V6.8
	C48.8,4.4,47.5,3.3,44.8,3.3 M43.8,12.2c-0.5,0.1-1-0.3-1.1-0.9c0-0.1,0-0.1,0-0.2c0-1.2,1.1-2,3.3-2.2v2.3
	C45.4,11.8,44.6,12.2,43.8,12.2"/>
<path class="st0" d="M55.8,11.7h-0.1c-0.3,0.1-0.5,0.1-0.8,0.1c-0.6,0.1-1.1-0.3-1.2-0.9c0-0.1,0-0.2,0-0.2v-5h2V3.3h-2.1V0h-2.7
	v3.4h-1.4v2.3h1.4v5.4c0,2.1,1.1,3.2,3.4,3.2c0.5,0,1.1-0.1,1.6-0.2H56L55.8,11.7z"/>
<path class="st0" d="M65.2,10.9c-1,0.8-2.2,1.2-3.4,1.2c-1.5,0-2.4-1-2.5-2.7h6.4V8.7c0-3.6-1.5-5.5-4.5-5.5c-1.2,0-2.3,0.4-3.2,1.2
	c-1.1,1.2-1.6,2.8-1.5,4.4c0,3.4,1.9,5.5,5,5.5c1.5,0,2.9-0.4,4.1-1.2h0.1l-0.3-2.2H65.2L65.2,10.9z M59.4,7.7
	c0.1-1.5,0.8-2.4,1.8-2.4c1.4,0,1.8,1.3,1.9,2.4H59.4z"/>
</svg>
