<svg id="Layer_1" data-name="Layer 1" xmlns="http://www.w3.org/2000/svg" viewBox="0 0 70.62 15.04" preserveAspectRatio="xMinYMin"><defs><style>.cls-1{fill:#010101;}.cls-2{fill:#fff;}</style></defs><title>AllstateDS</title><path class="cls-1" d="M72.85,17.71a1.08,1.08,0,0,1-1.1-1.2,1.13,1.13,0,0,1,1.1-1.2,1.08,1.08,0,0,1,1.1,1.2,1,1,0,0,1-1.1,1.2m0-2.2a1,1,0,0,0-1,1,0.9,0.9,0,0,0,1,1,1,1,0,0,0,1-1,0.9,0.9,0,0,0-1-1m0.4,1.6-0.4-.5h-0.1v0.5h-0.2v-1.3H73a0.4,0.4,0,0,1,.5.4,0.42,0.42,0,0,1-.3.4l0.4,0.5h-0.3ZM72.85,16h-0.2v0.4h0.2a0.22,0.22,0,0,0,.2-0.2c0.1-.1,0-0.2-0.2-0.2" transform="translate(-3.34 -3.35)"/><path class="cls-1" d="M12.85,4l-8.8,14.1h3s2.2-3.5,2.2-3.6h5v3.6h2.8V4h-4.2Zm1.4,8h-3.4c0.2-.3,3.5-5.6,3.5-5.6V12h-0.1Z" transform="translate(-3.34 -3.35)"/><rect class="cls-1" x="15.81" y="0.64" width="2.7" height="14.1"/><rect class="cls-1" x="20.51" y="0.64" width="2.7" height="14.1"/><path class="cls-1" d="M32.65,11.39c-1.5-.4-1.8-0.6-1.8-1.2s0.5-.9,1.3-0.9a6.41,6.41,0,0,1,3.1.9l0.1,0.1L35.75,8h-0.1a7.82,7.82,0,0,0-3.5-.7,4.08,4.08,0,0,0-3,1.1,3.23,3.23,0,0,0-.8,2.1c0,2.2,1.1,2.8,3.5,3.4,1.6,0.4,1.9.6,1.9,1.4s-0.4,1-1.5,1a6.45,6.45,0,0,1-3.6-1.2l-0.2-.1-0.4,2.4h0.1a8.69,8.69,0,0,0,4,1,4.78,4.78,0,0,0,3.4-1.1,3.29,3.29,0,0,0,.8-2.2c-0.1-2.5-1.2-3-3.7-3.7" transform="translate(-3.34 -3.35)"/><path class="cls-1" d="M43,15.69h-0.1a1.72,1.72,0,0,1-.8.1,1.06,1.06,0,0,1-1.2-1.2v-5h2V7.29h-2V4h-2.7v3.4h-1.4v2.3h1.4v5.4c0,2.1,1.1,3.2,3.4,3.2a6.27,6.27,0,0,0,1.6-.2h0.1Z" transform="translate(-3.34 -3.35)"/><path class="cls-1" d="M48.85,7.19a10.45,10.45,0,0,0-4,.8h-0.1l0.4,2.3,0.2-.1a8.8,8.8,0,0,1,3.3-.8c1.1,0,1.6.4,1.6,1.4v0.3c-4.1.4-6,1.8-6,4.2a2.83,2.83,0,0,0,3,3,4.48,4.48,0,0,0,3.2-1.4,9.64,9.64,0,0,1,.2,1.2h2.4v-7.4c-0.2-2.4-1.5-3.5-4.2-3.5m-1,8.9a1,1,0,0,1-1.1-1.1c0-1.2,1.1-2,3.3-2.2v2.3a2.84,2.84,0,0,1-2.2,1" transform="translate(-3.34 -3.35)"/><path class="cls-1" d="M59.85,15.61h-0.1a1.72,1.72,0,0,1-.8.1,1.06,1.06,0,0,1-1.2-1.2v-5h2V7.21h-2.1V3.91H55v3.4h-1.4v2.3H55V15c0,2.1,1.1,3.2,3.4,3.2A6.27,6.27,0,0,0,60,18h0.1Z" transform="translate(-3.34 -3.35)"/><path class="cls-1" d="M69.25,14.81a5.25,5.25,0,0,1-3.4,1.2c-1.5,0-2.4-1-2.5-2.7h6.4v-0.7c0-3.6-1.5-5.5-4.5-5.5a4.38,4.38,0,0,0-3.2,1.2,6,6,0,0,0-1.5,4.4c0,3.4,1.9,5.5,5,5.5a7.3,7.3,0,0,0,4.1-1.2h0.1l-0.3-2.2h-0.2Zm-5.8-3.3c0.1-1.5.8-2.4,1.8-2.4,1.4,0,1.8,1.3,1.9,2.4h-3.7Z" transform="translate(-3.34 -3.35)"/><path class="cls-2" d="M72.14,17.15A1.08,1.08,0,0,1,71,16a1.13,1.13,0,0,1,1.1-1.2,1.08,1.08,0,0,1,1.1,1.2,1,1,0,0,1-1.1,1.2m0-2.2a1,1,0,0,0-1,1,0.9,0.9,0,0,0,1,1,1,1,0,0,0,1-1,0.9,0.9,0,0,0-1-1m0.4,1.6-0.4-.5H72v0.5h-0.2v-1.3h0.4a0.4,0.4,0,0,1,.5.4,0.42,0.42,0,0,1-.3.4l0.4,0.5h-0.3Zm-0.4-1.1h-0.2v0.4h0.2a0.22,0.22,0,0,0,.2-0.2c0.1-.1,0-0.2-0.2-0.2" transform="translate(-3.34 -3.35)"/><path class="cls-2" d="M12.14,3.43l-8.8,14.1h3s2.2-3.5,2.2-3.6h5v3.6h2.8V3.43h-4.2Zm1.4,8h-3.4c0.2-.3,3.5-5.6,3.5-5.6v5.6h-0.1Z" transform="translate(-3.34 -3.35)"/><rect class="cls-2" x="15.1" y="0.08" width="2.7" height="14.1"/><rect class="cls-2" x="19.8" y="0.08" width="2.7" height="14.1"/><path class="cls-2" d="M31.94,10.83c-1.5-.4-1.8-0.6-1.8-1.2s0.5-.9,1.3-0.9a6.41,6.41,0,0,1,3.1.9l0.1,0.1L35,7.43h-0.1a7.82,7.82,0,0,0-3.5-.7,4.08,4.08,0,0,0-3,1.1,3.23,3.23,0,0,0-.8,2.1c0,2.2,1.1,2.8,3.5,3.4,1.6,0.4,1.9.6,1.9,1.4s-0.4,1-1.5,1a6.45,6.45,0,0,1-3.6-1.2l-0.2-.1-0.4,2.4h0.1a8.69,8.69,0,0,0,4,1,4.78,4.78,0,0,0,3.4-1.1,3.29,3.29,0,0,0,.8-2.2c-0.1-2.5-1.2-3-3.7-3.7" transform="translate(-3.34 -3.35)"/><path class="cls-2" d="M42.24,15.13h-0.1a1.72,1.72,0,0,1-.8.1,1.06,1.06,0,0,1-1.2-1.2V9h2V6.73h-2V3.43h-2.7v3.4H36v2.3h1.4v5.4c0,2.1,1.1,3.2,3.4,3.2a6.27,6.27,0,0,0,1.6-.2h0.1Z" transform="translate(-3.34 -3.35)"/><path class="cls-2" d="M48.14,6.63a10.45,10.45,0,0,0-4,.8H44l0.4,2.3,0.2-.1a8.8,8.8,0,0,1,3.3-.8c1.1,0,1.6.4,1.6,1.4v0.3c-4.1.4-6,1.8-6,4.2a2.83,2.83,0,0,0,3,3,4.48,4.48,0,0,0,3.2-1.4,9.64,9.64,0,0,1,.2,1.2h2.4v-7.4c-0.2-2.4-1.5-3.5-4.2-3.5m-1,8.9a1,1,0,0,1-1.1-1.1c0-1.2,1.1-2,3.3-2.2v2.3a2.84,2.84,0,0,1-2.2,1" transform="translate(-3.34 -3.35)"/><path class="cls-2" d="M59.14,15.05H59a1.72,1.72,0,0,1-.8.1A1.06,1.06,0,0,1,57,14V9h2V6.65h-2.1V3.35h-2.7v3.4h-1.4v2.3h1.4v5.4c0,2.1,1.1,3.2,3.4,3.2a6.27,6.27,0,0,0,1.6-.2h0.1Z" transform="translate(-3.34 -3.35)"/><path class="cls-2" d="M68.54,14.25a5.25,5.25,0,0,1-3.4,1.2c-1.5,0-2.4-1-2.5-2.7H69v-0.7c0-3.6-1.5-5.5-4.5-5.5a4.38,4.38,0,0,0-3.2,1.2,6,6,0,0,0-1.5,4.4c0,3.4,1.9,5.5,5,5.5a7.3,7.3,0,0,0,4.1-1.2H69l-0.3-2.2h-0.2ZM62.74,11c0.1-1.5.8-2.4,1.8-2.4,1.4,0,1.8,1.3,1.9,2.4h-3.7Z" transform="translate(-3.34 -3.35)"/></svg>