<svg id="Layer_1" data-name="Layer 1" xmlns="http://www.w3.org/2000/svg" width="59.01" height="45.6" viewBox="0 0 59.01 45.6"><defs><style>.cls-1{fill:#001c71;}</style></defs><title>NEWhands</title><path class="cls-1" d="M29.51,0C13.24,0,0,10.05,0,22.41S13.24,45.6,29.51,45.6,59,34.76,59,22.41,45.78,0,29.51,0M18.75,3.81L18.92,4l1.21,1.11,0.69,0.66c0.51,0.49,3.51,2.61,4.49,3.53A11.59,11.59,0,0,1,28.56,16l1.32,6.88,0.5,1.06,0.1,0.22,0.22,0.45a4.13,4.13,0,0,0,.5.87L31.88,26l1,1,0.28,0.3,0.46,0.46s1.38,0.2,1.38.2a3.2,3.2,0,0,1,1.73.57c0.61,0.69-.46,1.11-1.26,1.31L34,29.59S33.15,29,33.15,29l-1.08-.67-0.28-.17-0.88-.39L28.6,24.09a2,2,0,0,0-.16-1.3l-0.18.42a2.91,2.91,0,0,1-1.15,1.17l-0.18.1,2.41,3.44,0.14,0.23,0.46,0.62c0.06,0.06,1,.59,1,0.59l0.36,0.2,1.09,0.65,1,0.66,0.07,0L34.93,31a2.36,2.36,0,0,1,1.77.58c0.59,0.65-.2,1.18-1,1.4a6.26,6.26,0,0,0-3.47-.66l-0.9-.53-0.26-.15-1.46-.75-1.19-.41h0a5.74,5.74,0,0,0-.28-0.52,17.33,17.33,0,0,0-1.38-2l-0.14-.17-0.9-1.25a2.33,2.33,0,0,0,0-1.34,3.82,3.82,0,0,1-.36.55,5,5,0,0,1-1.24,1L24,26.86l3,4.07,0.31,0.44,0.16,0.2c0.06,0.05,1,.44,1,0.44a17.17,17.17,0,0,1,2,.92l1.1,0.65c0.09,0,1.22,0,2,0a2.74,2.74,0,0,1,2,.87h0c0.57,0.73-.88,1.19-1.72,1.39-0.16-.56-0.9-1.22-3-1.35a14.89,14.89,0,0,0-1.8.06h-0.1s-1-.68-1-0.68l-0.43-.25-1.42-.75L25,32.55s-0.77-1.11-.77-1.11L23.94,31l-0.82-1.19-0.35-.52-0.47-.73a2.08,2.08,0,0,0,.42-1.35,2.13,2.13,0,0,1-.43.39,6.87,6.87,0,0,1-1.93.86l-0.29.08,2.3,3,1.12,1.46L24,33.6l1,0.58,1,0.54,0.13,0.07,0.72,0.4,1.22,0.67a1,1,0,0,0,.22,0l1.57-.1a5.44,5.44,0,0,1,2.26.21c1.54,1.1-1.86,1.64-2.32,1.71A18.13,18.13,0,0,1,24,36.53c-2.27-1-3-1.89-4.83-4.34l-0.52-.68a4.31,4.31,0,0,0-.53-2,3.52,3.52,0,0,0-.84-1,5.21,5.21,0,0,0,.22-1.59A4.41,4.41,0,0,0,17,24.82c1.38-1.08,2.08-2.19,2.06-3.47a6.18,6.18,0,0,0-.34-1.52l-0.53-.25,0,0.35c0.21,2.15-1.8,3.55-3.13,4.48l-0.39.27L15,24.84c1,0.65,1.06,2.84.82,4.07V29l0.05,0.1,0.06,0,0.5,0.4a4,4,0,0,1-.19,4.88,0.59,0.59,0,0,1-.42.27,0.94,0.94,0,0,1-.35-0.57l-0.33-.67a23.26,23.26,0,0,0-3.44-5.59l0-.17c-0.34-2.76-.77-4.81-1.19-6.78l-0.23-1.07,0-.28a17.38,17.38,0,0,1,1.54-5.66l0.46-1.19,0.18-.45s0.19-.46.19-0.46c0.13-.57-1-1.05-1.79-1.48L9.41,9.52a26.4,26.4,0,0,1,9.34-5.7m6.44,34.65c-2.37,1.38-4.35.54-3.19-1.09a10.31,10.31,0,0,0,3.19,1.09m-5.71-3.17a17.5,17.5,0,0,0,2,1.62c-1.84.79-3.25-.32-2-1.62m7.2,4.87a0.82,0.82,0,0,1-.79-0.94A0.55,0.55,0,0,1,26,38.89l0.23-.25a14.93,14.93,0,0,0,4.36-.12c1.75-.38,2.71-1.07,3-1.63,4.23-1.16,2.87-3.09,2.81-3.17,3.13-1.43.72-3.41,0.33-3.6,2.76-1.27.61-2.74-1.41-3.27l-1.1-.33h0S33.83,26,33.83,26l-0.13-.14-1-1-0.46-.43s-0.41-1.12-.41-1.12l-0.59-1.43a13.49,13.49,0,0,1-.38-2.11s-0.1-.7-0.1-0.7L30.3,16.17s0.1-.57.1-0.57A14.35,14.35,0,0,1,31.6,12a7.2,7.2,0,0,1,2.26-2.56A35,35,0,0,0,37,6.82l0.72-.69,0.42-.42L40,3.93A26.19,26.19,0,0,1,49.3,9.78l-0.71.49c-1.08.65-3,1.6-2.56,2.48L46.17,13l0.22,0.51,0,0.11,0.29,0.74,0.05,0.15L46.93,15l0.6,2.1a24.73,24.73,0,0,1,.78,5.4s0,0.17,0,.17l-0.7,2c-0.72,2-1.63,4.59-1.83,5.64l0,0.12a20.43,20.43,0,0,0-3.9,5.83,0.33,0.33,0,0,1-.18.22,1.11,1.11,0,0,1-.44-0.3,3.08,3.08,0,0,1-.74-2.32,3.82,3.82,0,0,1,1.4-2.9,0.38,0.38,0,0,0,.05-0.41c-0.24-1.35.14-3.41,1-4l0.22-.16-0.21-.16c-2.38-1.84-3.54-5.25-3.64-7.79V18.09l-0.37.16a2.33,2.33,0,0,0-.18.25A8.05,8.05,0,0,0,38.54,20a12.41,12.41,0,0,0,.35,2.85,9.06,9.06,0,0,0,2,3.87l0,0.05a5.73,5.73,0,0,0-.64,2.95,4.92,4.92,0,0,0,.05.82,4.33,4.33,0,0,0-1.48,3s0,0.92,0,.93-0.54.68-.54,0.68l-0.11.15a9.21,9.21,0,0,1-3.56,3.37,17.41,17.41,0,0,1-8.07,1.45" transform="translate(-0.01)"/><path class="cls-1" d="M54.33,42.75l0-2,0.59,2h0.46l0.58-2,0,2h0.64V40H55.62l-0.49,1.74L54.62,40H53.69v2.71h0.64Zm-2.88-.9a0.86,0.86,0,0,0,1,.95,0.82,0.82,0,0,0,.94-0.87,0.81,0.81,0,0,0-.63-0.78c-0.49-.22-0.56-0.25-0.56-0.38a0.23,0.23,0,0,1,.24-0.21,0.25,0.25,0,0,1,.25.26h0.68A0.84,0.84,0,0,0,52.43,40a0.82,0.82,0,0,0-.29,1.61c0.42,0.18.53,0.22,0.53,0.36a0.26,0.26,0,0,1-.26.26,0.31,0.31,0,0,1-.28-0.37H51.45Z" transform="translate(-0.01)"/></svg>